<svg xmlns="http://www.w3.org/2000/svg" width="67.406" height="67.407" viewBox="0 0 67.406 67.407"><g transform="translate(-563.797 -187.563)"><path d="M620.066,198.217a10.967,10.967,0,0,1-4.647,9.3q-.751.421-1.475.877-.862.54-1.69,1.13A35.033,35.033,0,0,0,597.5,238.118a16.852,16.852,0,1,1-23.652-15.423c.977-.413,2.015-.621,2.991-1h0q.538-.208,1.066-.432a34.918,34.918,0,0,0,20.2-23.51c.015-.056.025-.1.037-.152a11.051,11.051,0,0,1,.539-2.583s0,0,0,0a10.982,10.982,0,0,1,21.378,3.2Z" transform="translate(0 0)" fill="#2a363b"/><path d="M785.185,330.629v3.2a8.464,8.464,0,1,1,0-3.2Z" transform="translate(-153.982 -102.5)" fill="#e84a5f"/></g></svg>