<svg xmlns="http://www.w3.org/2000/svg" width="301.323" height="67.832" viewBox="0 0 301.323 67.832"><g transform="translate(-69.64 -68.484)"><g transform="translate(69.64 68.484)"><path d="M121.114,105.758c0-1.142-.008-2.286,0-3.431a1.813,1.813,0,0,0-.383-1.254,5.819,5.819,0,0,1-1.166-2.32,22.727,22.727,0,0,0-3.114-5.438c-.547-.843-1.2-1.6-1.768-2.434a8.5,8.5,0,0,0-1.525-1.452,38.322,38.322,0,0,1-3.657-3.6,53.054,53.054,0,0,0-4.351-3.657,6.842,6.842,0,0,1-2.217-2.928,2.524,2.524,0,0,1,.07-2.053c.18-.324-.066-.592-.19-.865-.193-.418-.558-.778-.437-1.306.025-.114.014-.318.063-.329.906-.28.2-.66.054-.977-.293-.637-.634-1.254-.935-1.89a1.171,1.171,0,0,1,.106-1.278.571.571,0,0,0,.085-.71c-.236-.4-.37-.87.059-1.145a1.191,1.191,0,0,1,1.441.079c.622.484,1.254.96,1.9,1.4a70.786,70.786,0,0,0,6.346,4.043,25.924,25.924,0,0,1,5.033,3.005,37.727,37.727,0,0,1,4.38,3.7c.558.647.993,1.381,1.616,2a20.144,20.144,0,0,1,2.2,2.129,13.923,13.923,0,0,1,2.015,3.446,18.428,18.428,0,0,0,2.51,4.544,8.264,8.264,0,0,1,1.76,5.091,11.672,11.672,0,0,0,.5,3.042,14.405,14.405,0,0,1,.837,5.251,17.076,17.076,0,0,1-.547,2.548c-.418,1.673-.837,3.336-1.14,5.034a12.047,12.047,0,0,1-2.788,5.449,13.083,13.083,0,0,0-1.721,3.163,9.147,9.147,0,0,1-3.288,3.666c-.813.585-1.683,1.088-2.52,1.64a4.647,4.647,0,0,0-1.1,1.174,10.6,10.6,0,0,1-3.407,2.5,8.871,8.871,0,0,1-2.733,1.045c-.626.127-.674.5-.32.892.4.451.59,1.061,1.158,1.393.369.215.187.766-.307,1.049a.915.915,0,0,1-.389.149c-1.667.054-3.361.65-4.919-.62a8.075,8.075,0,0,0-2.682-1.56,2.193,2.193,0,0,0-2.138.566,2.29,2.29,0,0,1-1.5.6,6.337,6.337,0,0,1-2.758-.232,2.05,2.05,0,0,1-.742-.378,2.037,2.037,0,0,0-2.246-.457,12.583,12.583,0,0,0-3.026,1.813c-.141.089-.261.247-.4.263a8.633,8.633,0,0,1-4.305-.139c-.745-.293-.788-.641-.228-1.188a7.2,7.2,0,0,0,.976-1.371c.259-.406.206-.642-.351-.772a10.47,10.47,0,0,1-5.705-3.159,36,36,0,0,0-4.308-3.382,8.83,8.83,0,0,1-3.144-3.709c-.592-1.9-2.02-3.192-2.97-4.818a10.546,10.546,0,0,1-1.514-4.065,16.319,16.319,0,0,0-.747-3.291,16.141,16.141,0,0,1-.857-6.352,1.287,1.287,0,0,1,.119-.547A12.117,12.117,0,0,0,70.711,100c.329-1.267.193-2.58.52-3.839a8.822,8.822,0,0,1,1.635-3.253,18.46,18.46,0,0,0,2.545-4.7,9.607,9.607,0,0,1,1.944-3.163c1.621-1.673,3.068-3.538,4.767-5.093a32.169,32.169,0,0,1,7.652-5.319,64.276,64.276,0,0,0,8.416-5.371c.47-.326.826-.848,1.514-.745.626.1.9.46.7,1.082a1.319,1.319,0,0,0,.065,1.14,1.3,1.3,0,0,1-.041,1.167c-.384.75-.754,1.506-1.15,2.249-.1.185-.229.294.081.4.633.221.41.7.239,1.1-.117.278-.294.527-.437.8a1.085,1.085,0,0,0,.033,1.093,2.8,2.8,0,0,1-.558,2.7,17.615,17.615,0,0,1-4.184,3.886,13.239,13.239,0,0,0-1.862,1.684A35.443,35.443,0,0,1,88.2,89.993a9.39,9.39,0,0,0-1.648,1.964,39.96,39.96,0,0,0-3.405,5.191,16.945,16.945,0,0,1-1.425,3.285,5.3,5.3,0,0,0-.71,3.068c-.206,1.637-.047,3.272-.133,4.906a4.4,4.4,0,0,0,.342,2.006,18.557,18.557,0,0,0,2.327,4.574,20.28,20.28,0,0,0,1.813,1.643c1.036.985,2.067,1.972,3.067,3a5.118,5.118,0,0,0,1.673,1.254,6.6,6.6,0,0,1,2.145,1.634c.493.5,1.044.941,1.533,1.442.44.441,1.06.06,1.517.4.106.078.293.047.389.131,1.034.9,1.813.109,2.554-.459a4.833,4.833,0,0,1,3.4-.826,4.645,4.645,0,0,1,2.72,1.254,1.281,1.281,0,0,0,1.639.2,4.939,4.939,0,0,1,1.732-.487c.688-.106,1.218-.748,1.735-1.245a11.632,11.632,0,0,1,3.067-2.39c.886-.419,1.457-1.373,2.232-2.032.9-.775,1.684-1.7,2.572-2.5a7.89,7.89,0,0,0,1.283-1.18,21.449,21.449,0,0,0,2.456-5.131,1.69,1.69,0,0,0,.032-.557Q121.118,107.442,121.114,105.758Z" transform="translate(-69.64 -68.484)" fill="#e48c11"/><path d="M97.455,97.119a1.342,1.342,0,0,1-.524-1.014,27.5,27.5,0,0,1-.125-3.9c0-.5-.147-.785-.675-.892a6.221,6.221,0,0,1-2.009-.557,11.233,11.233,0,0,0-5.409-1.574c.234-.376.406-.524.8-.475a9.245,9.245,0,0,1,1.882.5,2.806,2.806,0,0,0,1.783.036,4.955,4.955,0,0,0,3.336-3.521c.365-1-.052-2.058.139-3.086.123-.633-.221-.917-.853-.881A3.783,3.783,0,0,1,92.071,79.8a1.547,1.547,0,0,0-2.3-.278,12.253,12.253,0,0,0-2.676,3.726,14.082,14.082,0,0,0-1.6,5.31c-.15,2.108-.021,4.234-.044,6.354-.006.582.234.739.759.721.9-.028,1.814-.057,2.717,0a3.894,3.894,0,0,1,3.894,2.428c.236.593-.141.693-.361.872-.288.237-.435-.114-.558-.329a6.788,6.788,0,0,0-.387-.754C90.9,97.056,90.1,96.556,89.2,97.2a3.241,3.241,0,0,0-.637,4.1c.223.37.367.626-.278.626a3.042,3.042,0,0,0-2.834,3.154c.008.664.046,1.337-.008,2a2.852,2.852,0,0,0,.94,2.282,5.156,5.156,0,0,0,1.857,1.246,13.524,13.524,0,0,1,3.949,2.025c.568.482,1.066.236,1.534-.215a18.7,18.7,0,0,0,1.715-1.645,4.607,4.607,0,0,0,1.349-2.586q.14-3.276.139-6.554a2.2,2.2,0,0,1,.718-1.813,1.635,1.635,0,0,0-.185-2.7Zm-4.427,10.071c-.049.185-.139.38-.31.258a4.858,4.858,0,0,1-1.311-1.025.633.633,0,0,1,.073-.788,4.893,4.893,0,0,0,.441-.549c.2-.3.419-.656.807-.546.418.123.378.593.418.96a4.77,4.77,0,0,1,.009.563A3.306,3.306,0,0,1,93.028,107.189Z" transform="translate(-60.461 -62.292)" fill="#cccac6"/><path d="M74.153,83.77a4.688,4.688,0,0,1,.644-2.317,15.193,15.193,0,0,1,4.085-3.975,2.738,2.738,0,0,1,1.14-.259c.27-.051.244.21.206.335a13.7,13.7,0,0,0-.378,2.331,2.383,2.383,0,0,1-.77,1.319,9.053,9.053,0,0,0-1.917,2.51.854.854,0,0,1-1.038.52c-.49-.123-.278-.6-.278-.911a4.094,4.094,0,0,1,.6-1.58c.066-.16.3-.353.092-.5-.236-.174-.394.117-.486.264a14.942,14.942,0,0,0-.762,1.431A1.275,1.275,0,0,1,74.153,83.77Z" transform="translate(-67.015 -63.407)" fill="#fff"/><path d="M101.394,77.225a4.562,4.562,0,0,1,2.2,1.256,14.634,14.634,0,0,1,2.947,3.282,5.3,5.3,0,0,1,.43,1.471c.049.176.033.345-.139.429a.388.388,0,0,1-.441-.128,4.847,4.847,0,0,1-.837-1.3,3,3,0,0,0-.623-1.019c-.13-.111-.27-.251-.429-.147-.21.139-.006.289.046.427a5.989,5.989,0,0,1,.735,2.037c0,.266.111.625-.28.715a.739.739,0,0,1-.837-.388A11.462,11.462,0,0,0,102,81.119a2.152,2.152,0,0,1-.731-1.783,5.591,5.591,0,0,0-.244-1.6C100.989,77.408,101.014,77.139,101.394,77.225Z" transform="translate(-51.389 -63.409)" fill="#fff"/><path d="M77.988,83.574a4.006,4.006,0,0,0-1.4,1.243c-.122.139-.172.373-.41.286-.2-.073-.12-.28-.123-.438a3.986,3.986,0,0,1,1.262-2.586,9.89,9.89,0,0,1,3.889-2.887c.193-.077.365-.332.618-.087a.717.717,0,0,1,.164.786,5.371,5.371,0,0,1-1.1,2.121,30.26,30.26,0,0,0-3,4.144c-.28.418-.729.985-1.131.739-.346-.212-.022-.879.22-1.3A4.939,4.939,0,0,0,77.988,83.574Z" transform="translate(-65.913 -62.366)" fill="#fff"/><path d="M104.942,85.113c-.451-.487-.865-.951-1.3-1.393-.117-.122-.237-.365-.451-.21-.187.139.054.294.049.446-.016.476.34.762.543,1.128a3.64,3.64,0,0,1,.593,1.115c.043.226.239.522.008.639-.179.089-.481-.068-.671-.264a4.67,4.67,0,0,1-.984-1.284,11.517,11.517,0,0,0-2.208-3.057,8.962,8.962,0,0,1-1.256-2.2.737.737,0,0,1,.09-.867c.229-.218.506-.047.718.066a10.126,10.126,0,0,1,4.38,3.82C104.8,83.655,105.288,84.224,104.942,85.113Z" transform="translate(-52.465 -62.334)" fill="#fff"/><path d="M72.525,93.785a5.954,5.954,0,0,1,.921-3.567.8.8,0,0,1,.731-.479c.326.043.486.4.538.68a15.033,15.033,0,0,1,.745,4.221,7.619,7.619,0,0,1-.312,1.585c-.081.259-.278.5-.557.456-.312-.049-.432-.321-.408-.645.035-.476-.228-.914-.153-1.4.022-.139.081-.389-.147-.406-.209-.016-.324.169-.326.384V95.9c0,.259.049.623-.255.652-.19.016-.41-.28-.493-.538A4.977,4.977,0,0,1,72.525,93.785Z" transform="translate(-67.976 -56.121)" fill="#fff"/><path d="M81.127,103.943a5.7,5.7,0,0,1,3.625,1.4,16.75,16.75,0,0,0,1.436.989c.108.074.263.165.223.327s-.225.117-.353.139c-.473.081-.837-.239-1.256-.348-.242-.063-.568-.214-.674.074s.152.479.459.573a4.861,4.861,0,0,1,.957.418.627.627,0,0,1,.372.764c-.152.359-.512.244-.8.155a19.086,19.086,0,0,1-3.282-1.794,5.546,5.546,0,0,1-1.64-1.384c-.237-.28-.5-.623-.388-.924.141-.378.585-.4.976-.38C80.895,103.952,81.012,103.943,81.127,103.943Z" transform="translate(-63.74 -47.86)" fill="#fff"/><path d="M107.5,93.838a4.154,4.154,0,0,1-.418,2.472c-.087.139-.177.332-.356.286s-.177-.248-.171-.418a4.017,4.017,0,0,0-.122-1.684c-.054-.139-.139-.269-.294-.248-.195.027-.16.214-.139.342a8.026,8.026,0,0,1-.139,1.469c-.024.28,0,.571-.323.611s-.5-.177-.618-.47a4.885,4.885,0,0,1-.319-2.569,24.463,24.463,0,0,1,.837-3.337c.229-.723.448-.728,1-.206a4.5,4.5,0,0,1,1.05,2.621A5.874,5.874,0,0,1,107.5,93.838Z" transform="translate(-49.331 -56.133)" fill="#fff"/><path d="M109.279,88.949a1.376,1.376,0,0,1-.054.384c-.043.119-.076.293-.245.308-.139.016-.164-.139-.239-.225a5.235,5.235,0,0,1-.615-1.265c-.1-.2-.231-.486-.5-.373s0,.329,0,.5a8.427,8.427,0,0,0,.5,2.265c.066.27.111.437-.163.58a.435.435,0,0,1-.609-.089l-.013-.019a1.917,1.917,0,0,1-.443-.947,7.883,7.883,0,0,0-1.129-3.6,5.572,5.572,0,0,1-.462-3.239c0-.516.4-.2.539-.087a7.014,7.014,0,0,1,1.333,1.446,12.217,12.217,0,0,1,2.02,3.7A2.682,2.682,0,0,1,109.279,88.949Z" transform="translate(-48.935 -60.076)" fill="#fff"/><path d="M95,106.648c.237-.522.818-.633,1.2-.982a6.152,6.152,0,0,1,4.484-1.722c.9.033,1.079.362.626,1.153a4.434,4.434,0,0,1-1.912,1.6,13.927,13.927,0,0,1-3.051,1.673c-.31.081-.674.3-.845-.077s.066-.726.467-.894c.28-.115.558-.245.837-.337s.539-.195.419-.517-.441-.21-.661-.112a2.712,2.712,0,0,1-1.256.353C95.208,106.781,95.078,106.816,95,106.648Z" transform="translate(-54.886 -47.861)" fill="#fff"/><path d="M75.076,85.545A13.7,13.7,0,0,0,73.582,89.4a3.969,3.969,0,0,0-.1.7,1.116,1.116,0,0,1-.4.871c-.183.172-.357.318-.611.153-.228-.149-.226-.329-.163-.6a15.616,15.616,0,0,0,.512-2.406c.009-.139.06-.307-.106-.365s-.253.079-.318.21c-.223.443-.438.892-.663,1.332-.07.139-.108.359-.323.3-.193-.057-.15-.263-.168-.418a3.819,3.819,0,0,1,.6-2.5,11.009,11.009,0,0,1,3.068-3.693c.152-.013.2.079.2.209A20.246,20.246,0,0,1,75.076,85.545Z" transform="translate(-68.718 -60.055)" fill="#fff"/><path d="M102.49,107.184c-.16.009-.3.028-.35-.095a.33.33,0,0,1,.139-.435c.365-.141.454-.528.734-.735a.416.416,0,0,0,.046-.671c-.2-.214-.418-.082-.6.106a2.071,2.071,0,0,1-.837.626c-.174.059-.362.179-.511-.016a.6.6,0,0,1-.022-.607.56.56,0,0,1,.236-.259,33.421,33.421,0,0,1,3.347-2.259c.718-.3,1.243-.977,1.963-1.318.228-.109.446-.316.712-.139.291.187.071.432.013.636a5.58,5.58,0,0,1-1.839,2.9,6.222,6.222,0,0,0-1.226,1.262C103.828,106.863,103.112,106.95,102.49,107.184Z" transform="translate(-51.389 -49.388)" fill="#fff"/><path d="M73.93,102.035c-.089-.772.245-.868.557-.626a44.3,44.3,0,0,1,4.207,2.847,2.771,2.771,0,0,0,.769.481,2.019,2.019,0,0,1,.685.6.583.583,0,0,1,.033.669c-.183.25-.44.063-.62-.065-.263-.187-.482-.44-.742-.63-.188-.141-.43-.259-.633-.035s-.09.441.084.631c.256.28.522.539.775.819a.311.311,0,0,1,.054.392.353.353,0,0,1-.316.074,2.493,2.493,0,0,1-1.272-.53,18.963,18.963,0,0,1-3.053-3.363A6.957,6.957,0,0,1,73.93,102.035Z" transform="translate(-67.153 -49.402)" fill="#fff"/><path d="M73.028,96.552a2.507,2.507,0,0,1,.139-.7c.2-.837.327-.908,1.015-.361a7.911,7.911,0,0,1,2.482,3.764c.139.419.266.846.4,1.27.049.16.259.346-.009.475-.191.093-.375-.06-.486-.191-.259-.3-.471-.642-.715-.958-.127-.163-.272-.389-.5-.3-.321.117-.054.378-.028.541a12.574,12.574,0,0,0,.346,1.359c.054.207.139.479-.052.6-.247.15-.467-.093-.571-.28-.418-.732-.819-1.477-1.169-2.243A12.955,12.955,0,0,1,73.028,96.552Z" transform="translate(-67.669 -52.978)" fill="#fff"/><path d="M75.236,89.334a1.989,1.989,0,0,1,.191-.987c.044-.117.108-.234-.009-.315-.149-.1-.278.008-.35.128-.269.468-.525.949-.778,1.428-.139.28-.27.626-.655.478-.41-.164-.365-.573-.305-.919a7.981,7.981,0,0,1,1.86-3.8c.376-.446.655-.987,1.284-1.132.6-.139.792-.013.715.612a16.368,16.368,0,0,1-1.023,5.019c-.141.313-.25.588-.612.5-.327-.076-.316-.4-.318-.677Z" transform="translate(-67.516 -59.366)" fill="#fff"/><path d="M86.1,75.44a6.617,6.617,0,0,1-2.556,3.976,15.864,15.864,0,0,0-1.213,1.068c-.3.258-.717.558-1.025.234-.348-.361.017-.735.291-1.034a8.353,8.353,0,0,0,.93-1.06.769.769,0,0,0,.13-.7c-.489.187-.758.631-1.125.927a2.354,2.354,0,0,1-1.164.536c-.226.032-.533.161-.629-.087a.6.6,0,0,1,.31-.707,10.576,10.576,0,0,1,1.28-.827,23.549,23.549,0,0,0,2.27-1.51A7.335,7.335,0,0,1,86.1,75.44Z" transform="translate(-63.779 -64.438)" fill="#fff"/><path d="M103.345,101.058a6.118,6.118,0,0,1,.593-2.14,7.456,7.456,0,0,1,2.539-3.543c.512-.375.644-.332.767.28a7.663,7.663,0,0,1-1.183,5.019c-.2.4-.419.791-.634,1.182a.4.4,0,0,1-.4.232c-.232-.036-.139-.259-.152-.408a3.51,3.51,0,0,1,.263-1.452c.06-.2.319-.446.033-.634s-.353.179-.52.307C104.212,100.222,104.073,100.9,103.345,101.058Z" transform="translate(-50.035 -52.982)" fill="#fff"/><path d="M84.11,109.7a4.036,4.036,0,0,1-2.817-.753,6.793,6.793,0,0,1-2.172-1.5,7.374,7.374,0,0,1-.734-1.02c-.221-.361.147-.829.709-.87a2.865,2.865,0,0,1,1.558.233c1.267.631,2.543,1.246,3.749,1.994.331.206.788.558.558.911-.218.332-.751.081-1.076-.139a5.123,5.123,0,0,0-.881-.41.369.369,0,0,0-.5.155.35.35,0,0,0-.04.125c-.062.229.017.354.269.473C83.18,109.117,83.739,109.143,84.11,109.7Z" transform="translate(-64.589 -46.936)" fill="#fff"/><path d="M97.33,109.546c.457-.223.908-.462,1.376-.663.24-.1.435-.179.3-.5-.119-.28-.293-.327-.557-.2-.373.185-.754.357-1.145.514-.305.123-.716.266-.894-.038-.139-.244.2-.535.41-.732a9.491,9.491,0,0,1,2.246-1.256,6.052,6.052,0,0,1,3.032-1.136,1.224,1.224,0,0,1,.721.22.528.528,0,0,1,.24.707.491.491,0,0,1-.082.12,7.055,7.055,0,0,1-3.186,2.532A3,3,0,0,1,97.33,109.546Z" transform="translate(-54.088 -46.933)" fill="#fff"/><path d="M99.721,103.855c-.073-.558.359-.837.7-1.064a30.285,30.285,0,0,1,4.487-2.964c.168-.073.324-.267.5-.155.215.139.109.375.07.58a7.13,7.13,0,0,1-2.331,3.777,5.734,5.734,0,0,1-1.691,1.3c-.139.054-.278.139-.387.038-.179-.166.024-.331.1-.419.247-.245.508-.478.778-.7a1.693,1.693,0,0,0,.46-.618.382.382,0,0,0-.114-.5c-.185-.139-.278.017-.418.106-.484.318-.781.868-1.33,1.1S99.721,104.423,99.721,103.855Z" transform="translate(-52.147 -50.363)" fill="#fff"/><path d="M81.351,103.829c0,.207.049.452-.195.557a.751.751,0,0,1-.789-.139c-.388-.3-.743-.639-1.117-.954-.114-.1-.21-.313-.4-.187s-.168.354-.125.577c.074.383.429.471.648.7.272.278.856.6.6.946-.2.263-.74-.179-1.039-.437a7.684,7.684,0,0,1-3.374-4.927c-.122-.432.253-.354.49-.229a17.308,17.308,0,0,1,1.771.987c1.036.712,2.036,1.476,3.046,2.23A.957.957,0,0,1,81.351,103.829Z" transform="translate(-66.208 -50.364)" fill="#fff"/><path d="M71.3,96.681a5.405,5.405,0,0,1-.985-4.34,13.234,13.234,0,0,1,.541-1.964,1.347,1.347,0,0,1,.4-.557c.256-.2.361-.258.539.182a16.394,16.394,0,0,1,1.329,5.8,1.927,1.927,0,0,1,0,.427c-.059.278-.128.637-.425.669s-.334-.34-.394-.58a6.435,6.435,0,0,1-.329-1.871c.009-.172.071-.443-.195-.449s-.312.236-.31.47v1.642C71.46,96.286,71.515,96.486,71.3,96.681Z" transform="translate(-69.313 -56.162)" fill="#fff"/><path d="M77.9,77.873c.063-.921.83-.9,1.256-1.227,1.166-.886,2.422-1.648,3.617-2.5a1.685,1.685,0,0,1,1.278-.155c.438.047.2.408.127.607a7.525,7.525,0,0,1-2.972,3.747c-.4.259-.7.7-1.237.742-.206.021-.4.164-.558-.06s.079-.329.15-.486c.247-.536.8-.786,1.117-1.254a2.706,2.706,0,0,0,.3-.386c.081-.195.4-.4.157-.6s-.4.13-.571.28c-.384.342-.766.7-1.151,1.031C78.964,78.009,78.418,77.638,77.9,77.873Z" transform="translate(-64.835 -65.316)" fill="#fff"/><path d="M108.378,89.571c1.764,1.58,1.874,4.7.3,7.236a6.04,6.04,0,0,1-.185-2.187c-.022-.215.12-.558-.226-.577-.418-.022-.278.367-.278.587a5.215,5.215,0,0,1-.361,1.934c-.057.177-.089.43-.315.419-.248-.022-.312-.3-.318-.493a14.211,14.211,0,0,1,0-2.14A19.57,19.57,0,0,1,108.378,89.571Z" transform="translate(-47.933 -56.219)" fill="#fff"/><path d="M107.027,89.416a.542.542,0,0,1-.342.614c-.315.117-.47-.171-.55-.411a9.414,9.414,0,0,0-.747-1.447c-.087-.158-.22-.37-.429-.286-.294.119-.051.34,0,.475a4.16,4.16,0,0,1,.123,1.479c0,.193-.063.418-.251.46a.429.429,0,0,1-.5-.3,11.117,11.117,0,0,1-.8-2.694c-.049-.867-.179-1.729-.278-2.592-.068-.6.221-.636.669-.463.827.316,1.172,1.115,1.673,1.746A6.888,6.888,0,0,1,107.027,89.416Z" transform="translate(-50.093 -59.368)" fill="#fff"/><path d="M99.672,80.777a1.882,1.882,0,0,1-.93-.558,9.038,9.038,0,0,1-3.048-3.405c-.166-.411-.569-.976-.34-1.218s.837.041,1.272.18a20.532,20.532,0,0,1,3.143,1.936c.475.25.9.587,1.373.846a.587.587,0,0,1,.34.633c-.073.3-.356.147-.588.139-.878-.038-1.31-.732-1.876-1.242-.155-.141-.288-.5-.541-.28-.187.166.028.448.125.636a8.069,8.069,0,0,0,1.188,1.4.7.7,0,0,1,.191.778A.319.319,0,0,1,99.672,80.777Z" transform="translate(-54.723 -64.402)" fill="#fff"/><path d="M103.328,77.72c-1.042.337-1.694-.237-2.316-.943-.248-.278-.611-.819-.908-.557s.236.656.4,1c.24.524.851.667,1.093,1.164.093.195.441.367.22.6a.661.661,0,0,1-.837-.036c-.482-.323-.951-.674-1.4-1.042a7.5,7.5,0,0,1-2.349-3.119c-.068-.176-.332-.419-.089-.641a.821.821,0,0,1,.794-.166,4.135,4.135,0,0,1,1.6.837,26.885,26.885,0,0,0,3.285,2.252C103.058,77.225,103.314,77.341,103.328,77.72Z" transform="translate(-53.705 -65.311)" fill="#fff"/><path d="M77.866,98.71a5.8,5.8,0,0,1,1.964.739c.682.535,1.386,1.038,2.048,1.594.476.4.9.87,1.346,1.308.085.084.172.19.085.307s-.206.059-.318.016a3.51,3.51,0,0,1-1.419-1.011c-.152-.172-.353-.418-.577-.2s.013.418.18.585c.35.351.7.709,1.038,1.063.139.139.253.3.093.5-.13.158-.3.114-.444.024a10.13,10.13,0,0,1-1.245-.78,13.4,13.4,0,0,1-3.407-3.176c-.128-.217-.3-.456-.127-.726C77.218,98.737,77.425,98.639,77.866,98.71Z" transform="translate(-65.352 -50.916)" fill="#fff"/><path d="M97.929,102.665a20.042,20.042,0,0,1,3.3-3,6.89,6.89,0,0,1,2.132-.943.677.677,0,0,1,.826.206c.171.28.013.549-.139.837-.707,1.3-2,1.931-3.043,2.85a5.133,5.133,0,0,1-1.4.93c-.225.093-.487.356-.675.051-.158-.261.119-.465.288-.645.331-.354.811-.558,1.022-1.034.057-.133.31-.206.139-.4s-.351-.092-.5.022a10.089,10.089,0,0,1-1.178.993C98.475,102.649,98.275,102.85,97.929,102.665Z" transform="translate(-53.185 -50.935)" fill="#fff"/><path d="M109.211,97.163a5.309,5.309,0,0,1-1,3.189c-.419.709-.837,1.416-1.275,2.11-.117.183-.3.476-.538.342s-.139-.465-.057-.7c.131-.351.307-.688.448-1.036.052-.139.27-.3.055-.418-.182-.106-.329.046-.454.212-.289.4-.6.773-.911,1.155-.077.093-.191.179-.3.1-.15-.106-.085-.253,0-.37A23.272,23.272,0,0,0,107.3,97.4a3.146,3.146,0,0,1,1.362-1.373c.365-.191.617-.149.557.375A6.866,6.866,0,0,0,109.211,97.163Z" transform="translate(-49.02 -52.527)" fill="#fff"/><path d="M73.663,100.6a6.719,6.719,0,0,0,.471,1.6c.044.214.158.519-.123.626-.218.081-.37-.166-.467-.35a16.773,16.773,0,0,1-2.232-4.418,9.814,9.814,0,0,1-.06-1.841c0-.452.294-.35.525-.2a3.932,3.932,0,0,1,1.632,1.792c.41,1,.807,2.009,1.2,3.016.125.324.43.5.593.783.087.153.278.362.079.5-.221.166-.267-.139-.392-.245C74.468,101.491,74.307,100.851,73.663,100.6Z" transform="translate(-68.712 -52.542)" fill="#fff"/><path d="M104.828,96.033a14,14,0,0,1-.671,3.793,1.44,1.44,0,0,1-.348.6.724.724,0,0,1-.96.035.557.557,0,0,1-.032-.788l.043-.041a2.228,2.228,0,0,0,.546-1.2c.025-.164.081-.419-.2-.451-.223-.03-.209.16-.278.315-.193.456-.443.881-.667,1.324-.095.19-.193.319-.429.174-.2-.128-.323-.269-.209-.522a9.2,9.2,0,0,1,.618-1.349c.7-1.05.747-2.391,1.507-3.415.176-.234.327-.524.628-.446s.332.388.354.7A7.289,7.289,0,0,1,104.828,96.033Z" transform="translate(-51.061 -53.613)" fill="#fff"/><path d="M75.374,96.033a6.09,6.09,0,0,1,.122-1.616c.215-.577.454-.459.723-.106a3.724,3.724,0,0,1,.65,1.163,23.925,23.925,0,0,0,1.441,3.413c.071.147.093.319.169.463.122.237,0,.338-.187.438s-.315-.017-.4-.163c-.255-.448-.5-.9-.739-1.362-.063-.122-.06-.307-.258-.239a.314.314,0,0,0-.214.388l0,.014a4.084,4.084,0,0,0,.493,1.167c.234.321.318.723,0,.935a.722.722,0,0,1-.987-.255A2.978,2.978,0,0,1,75.67,98.9,9.746,9.746,0,0,1,75.374,96.033Z" transform="translate(-66.311 -53.634)" fill="#fff"/><path d="M79.47,86.138a11.131,11.131,0,0,1,.761-2.091c.123-.231.244-.5.035-.636-.247-.158-.419.163-.538.337a7.655,7.655,0,0,0-.634,1.1,1.585,1.585,0,0,1-.547.626c-.248.174-.437.066-.456-.185a2.016,2.016,0,0,1,.2-1.378,7.389,7.389,0,0,1,3.957-2.928c.183-.059.367-.141.53-.025.217.16.013.35-.024.516A11.408,11.408,0,0,1,80.4,85.267C80.174,85.582,80.016,86.018,79.47,86.138Z" transform="translate(-64.749 -61.262)" fill="#fff"/><path d="M86.07,78.318a2.22,2.22,0,0,1-.46,1.308,6.854,6.854,0,0,1-2.244,2.469.958.958,0,0,1-.582.18c-.2-.011-.444.043-.535-.225-.074-.225.041-.364.2-.546.492-.568,1.231-.822,1.683-1.444.108-.139.353-.255.21-.44s-.335.011-.467.125c-.612.512-1.386.764-1.991,1.3a.557.557,0,0,1-.788,0l-.03-.033c-.163-.232.089-.484.278-.655A20.414,20.414,0,0,1,84.521,78.2c.212-.127.451-.234.675-.353C85.734,77.561,86.071,77.756,86.07,78.318Z" transform="translate(-63.025 -63.115)" fill="#fff"/><path d="M101.259,86.062a10.872,10.872,0,0,1-2.1-2.41,5.589,5.589,0,0,1-1.208-2.2.72.72,0,0,1-.022-.471c.09-.147.285-.066.446-.011a7.428,7.428,0,0,1,4.013,2.969,1.287,1.287,0,0,1,.217.878c-.028.245.127.622-.182.7s-.547-.193-.688-.5a4.594,4.594,0,0,0-1.115-1.607c-.1-.087-.206-.245-.35-.128s-.028.258.025.384Q100.766,84.858,101.259,86.062Z" transform="translate(-53.203 -61.266)" fill="#fff"/><path d="M95.167,77.742a1.689,1.689,0,0,1,.976.383,24.483,24.483,0,0,1,3.138,2.091c.248.188.6.489.389.792s-.569.087-.86-.109c-.655-.44-1.333-.837-2-1.264-.117-.07-.231-.2-.362-.059s.013.259.073.38c.232.473.713.664,1.087.976.231.195.467.378.682.6.16.16.346.293.188.52a.557.557,0,0,1-.565.195,2,2,0,0,1-1.1-.707,5.257,5.257,0,0,1-2.021-3.345C94.766,77.809,94.873,77.72,95.167,77.742Z" transform="translate(-55.012 -63.101)" fill="#fff"/><path d="M77,93.125v2.208c0,.149.025.316-.139.351s-.255-.108-.312-.236a2.214,2.214,0,0,1-.16-1.517,2.227,2.227,0,0,0,.1-.478c0-.15.081-.386-.13-.418-.237-.041-.278.217-.315.383-.16.683-.289,1.373-.449,2.059-.047.2-.125.446-.378.452-.307.009-.278-.345-.288-.482a9.317,9.317,0,0,1,.006-2.543,8.346,8.346,0,0,1,.89-2.51c.131-.259.367-.348.557-.522.319-.3.419-.24.489.2A27.647,27.647,0,0,1,77,93.125Z" transform="translate(-66.612 -56.152)" fill="#fffffb"/><path d="M94.411,105.1a.707.707,0,0,1,.305-.58,12.661,12.661,0,0,1,3.371-2.221c.356-.127.721-.209.976.074s-.051.571-.139.837a1.542,1.542,0,0,1-.37.592,14.159,14.159,0,0,1-3.54,2.819c-.139.062-.245.278-.418.112s-.093-.345-.033-.531c.1-.31.362-.41.6-.558.217-.128.645-.155.467-.558-.166-.37-.484-.092-.742-.057C94.734,105.069,94.6,105.23,94.411,105.1Z" transform="translate(-55.231 -48.881)" fill="#fff"/><path d="M82.094,102.192a3.927,3.927,0,0,1,1.89.845,13.439,13.439,0,0,1,2.044,1.591c.111.133.365.237.215.457-.122.18-.294,0-.44-.043a2.182,2.182,0,0,0-.327-.117c-.217-.035-.456-.011-.528.233s.15.316.315.4c.359.188.818.267.862.8a.649.649,0,0,1-.051.4c-.108.139-.24,0-.364-.065a14.93,14.93,0,0,1-3.576-2.929,1.966,1.966,0,0,1-.517-.993C81.555,102.428,81.648,102.153,82.094,102.192Z" transform="translate(-62.683 -48.879)" fill="#fff"/><path d="M102.75,93.3c-.128-.936.185-2.059.128-3.2-.03-.558.244-.473.531-.234a4.327,4.327,0,0,1,1.286,2.3,11.9,11.9,0,0,1,.157,3.108c0,.263-.03.595-.3.642-.359.063-.335-.348-.4-.558-.177-.6-.305-1.223-.43-1.841-.047-.233-.032-.566-.35-.473-.264.081-.155.408-.092.623a2.809,2.809,0,0,1-.041,1.673c-.054.174-.1.338-.294.329-.229-.011-.2-.217-.2-.38C102.75,94.692,102.75,94.1,102.75,93.3Z" transform="translate(-50.399 -56.152)" fill="#fff"/><path d="M79.04,85.572a7.091,7.091,0,0,1-1.087,3.9.272.272,0,0,1-.087.111c-.278.2-.183.837-.639.716s-.073-.571-.139-.867c-.024-.109.019-.253-.139-.278a.259.259,0,0,0-.28.163c-.139.248-.239.516-.4.75s-.35.457-.618.338c-.228-.1-.226-.408-.179-.639a4.962,4.962,0,0,1,1.93-3.242C77.9,86.178,78.444,85.917,79.04,85.572Z" transform="translate(-66.26 -58.545)" fill="#fff"/><path d="M101.211,85.619a4.931,4.931,0,0,1,3.5,3.625c.106.383.248.938-.139,1.1-.324.141-.5-.441-.759-.7-.2-.2-.087-.775-.506-.622-.332.119-.035.489-.008.75.021.195.022.41-.174.5-.242.117-.3-.122-.4-.27a10.908,10.908,0,0,1-1.5-3.54A3.443,3.443,0,0,1,101.211,85.619Z" transform="translate(-51.289 -58.517)" fill="#fff"/><path d="M89.952,73.554A2.58,2.58,0,0,1,89,75.135a19.421,19.421,0,0,1-3.151,2.788c-.418.28-.637.766-1.115.94-.294.109-.666.351-.887.1-.289-.329.027-.661.267-.921a29.461,29.461,0,0,1,4.032-3.371,9.743,9.743,0,0,0,1.393-1.182c.073-.079.139-.206.286-.119A.281.281,0,0,1,89.952,73.554Z" transform="translate(-61.441 -65.658)" fill="#fff"/><path d="M91.284,73.219c1.912,1.86,4.184,3.027,5.881,4.938.223.251.432.53.236.805-.177.251-.5.1-.759-.017a1.418,1.418,0,0,1-.432-.209,46.953,46.953,0,0,1-3.919-3.582C91.875,74.636,91.2,74.231,91.284,73.219Z" transform="translate(-57.054 -65.73)" fill="#fff"/><path d="M83.188,111.968a4.053,4.053,0,0,1,.9-.9,27.423,27.423,0,0,0,2.694-2.121,1.588,1.588,0,0,1,1.862-.011.48.48,0,0,1,.011.68.5.5,0,0,1-.076.065,2.813,2.813,0,0,1-1.137.622,3.192,3.192,0,0,0-1.563.837A3.208,3.208,0,0,1,83.188,111.968Z" transform="translate(-61.759 -45.124)" fill="#fff"/><path d="M96.744,111.906c-.837.059-1.381-.558-1.925-1.019s-1.273-.418-1.806-.849c-.345-.28-.924-.41-.672-1.039.139-.345,1.284-.519,1.593-.21.587.585,1.314.965,1.942,1.484l1.832,1.509C97.43,112.159,97.078,111.97,96.744,111.906Z" transform="translate(-56.471 -45.133)" fill="#fff"/><path d="M89.345,75.233a9.609,9.609,0,0,1-4.063,4.212.217.217,0,0,1-.307-.008.246.246,0,0,1-.046-.073c-.089-.3-.367-.587-.139-.93a1.426,1.426,0,0,1,.34-.356q2.045-1.492,4.1-2.972C89.345,75.066,89.4,75.095,89.345,75.233Z" transform="translate(-60.878 -64.642)" fill="#fff"/><path d="M91.53,75.2c1.337.849,2.5,1.952,3.872,2.755.626.367.531.913.25,1.534a10.342,10.342,0,0,1-4.267-4.138C91.334,75.193,91.4,75.16,91.53,75.2Z" transform="translate(-57.002 -64.588)" fill="#fffffb"/><path d="M93.806,107.773a2.235,2.235,0,0,1-.87,1.724c-.15.139-.269.109-.435.032a.44.44,0,0,1-.285-.557l.006-.019a4.1,4.1,0,0,0,0-2.325c-.055-.354,0-.75.406-.883.376-.127.493.225.685.463A3.149,3.149,0,0,1,93.806,107.773Z" transform="translate(-56.521 -46.826)" fill="#fffefc"/><path d="M85.386,107.726a2.862,2.862,0,0,1,.623-1.938c.255-.338.471-.307.685.063.123.209.28.47.215.648a5.621,5.621,0,0,0-.084,2.38c.019.234.041.5-.278.574a.571.571,0,0,1-.645-.28A1.743,1.743,0,0,1,85.386,107.726Z" transform="translate(-60.487 -46.922)" fill="#fffdf8"/><path d="M92.3,108.638a.92.92,0,0,1-.946.892,1.076,1.076,0,0,1-.125-.013,4.893,4.893,0,0,0-2.51.019c-.258.035-.743.316-.818-.294-.068-.557.3-.792.75-.815a23.069,23.069,0,0,0,2.975-.152.535.535,0,0,1,.671.353Z" transform="translate(-59.02 -45.352)" fill="#fff"/><path d="M85.93,108.28a.193.193,0,0,1,.253.1.266.266,0,0,1,.014.051.386.386,0,0,1-.166.437c-1.269.786-2.221,1.977-3.448,2.814-.1.063-.21.158-.3.049a.634.634,0,0,1-.084-.329c-.019-.188.128-.3.223-.43a8.758,8.758,0,0,1,2.913-2.575A.8.8,0,0,1,85.93,108.28Z" transform="translate(-62.338 -45.346)" fill="#fffdf8"/><path d="M94.7,108.253a2.667,2.667,0,0,1,1.329.705,8.926,8.926,0,0,1,2.145,2.27c.079.139.258.323.03.5-.209.157-.343-.008-.481-.133q-1.571-1.435-3.276-2.709c-.177-.127-.278-.247-.22-.459S94.491,108.3,94.7,108.253Z" transform="translate(-55.35 -45.352)" fill="#fffffb"/><path d="M92.1,110.044a3.723,3.723,0,0,1-3.834-.016A3.73,3.73,0,0,1,92.1,110.044Z" transform="translate(-58.803 -44.623)" fill="#fffcf4"/><path d="M87.664,105.363c.288-.047.418.13.364.456a1.614,1.614,0,0,1-.155.533,2.357,2.357,0,0,0-.065,2.32.486.486,0,0,1-.147.672l-.014.009a.412.412,0,0,1-.462.038c-.258-.152-.206-.419-.139-.634a2.207,2.207,0,0,0-.089-1.583,2.385,2.385,0,0,1-.084-1.188C86.918,105.592,87.2,105.375,87.664,105.363Z" transform="translate(-59.638 -47.037)" fill="#fffcf8"/><path d="M91.23,108.706c-.019.117-.025.011.017-.068a2.357,2.357,0,0,0-.171-2.355c-.139-.239-.331-.5-.066-.77a.632.632,0,0,1,.778-.068.732.732,0,0,1,.4.761,4.185,4.185,0,0,1-.155.753,2.879,2.879,0,0,0-.073,1.926c.092.247.123.536-.278.557C91.308,109.464,91.17,109.273,91.23,108.706Z" transform="translate(-57.286 -47.045)" fill="#fffcf8"/><path d="M90.307,103.785c.191-.122.269.009.278.153.019.337-.976,1.038-1.254.865s-.789-.327-.69-.783c.095-.429.55-.195.845-.229A6.77,6.77,0,0,1,90.307,103.785Z" transform="translate(-58.594 -47.979)" fill="#fff6e5"/><path d="M90.156,108.085c-.248-.016-.522-.017-.433-.324a1.011,1.011,0,0,1,.756-.735.33.33,0,0,1,.384.264.315.315,0,0,1,0,.122.688.688,0,0,1-.7.674Z" transform="translate(-57.968 -46.069)" fill="#fff7e9"/><path d="M88.346,107.021a1.012,1.012,0,0,1,.648.658c.07.228-.221.411-.481.367-.375-.065-.645-.255-.617-.712C87.913,107.086,88.015,106.991,88.346,107.021Z" transform="translate(-59.022 -46.072)" fill="#fff5e0"/><path d="M91.129,104.89c.022.506-.315.663-.756.677-.231.006-.418-.074-.391-.37a2.812,2.812,0,0,1,.995-.821C91.171,104.482,91.2,104.661,91.129,104.89Z" transform="translate(-57.809 -47.607)" fill="#fff6e5"/><path d="M87.895,104.841c.06-.168-.066-.517.206-.419a1.314,1.314,0,0,1,.914.786c.068.236-.242.342-.433.331a.648.648,0,0,1-.686-.611A.533.533,0,0,1,87.895,104.841Z" transform="translate(-59.023 -47.59)" fill="#fff9ee"/><path d="M89.058,106a.824.824,0,0,1-.7.712.221.221,0,0,1-.267-.164.226.226,0,0,1,.014-.144.793.793,0,0,1,.737-.626C89.049,105.761,89.076,105.868,89.058,106Z" transform="translate(-58.908 -46.795)" fill="#fff3db"/><path d="M89.692,105.779c.481-.123.837-.066.995.419.052.153.087.378-.139.384C90.029,106.6,89.926,106.136,89.692,105.779Z" transform="translate(-57.976 -46.824)" fill="#fff7ea"/><path d="M73.713,85.6a14.347,14.347,0,0,0-.152-2.578c.111-.122.364-.24.318-.013C73.713,83.872,74.015,84.754,73.713,85.6Z" transform="translate(-67.359 -60.11)" fill="#fac45d"/><path d="M95.1,110.748c.319-.044.674.16.963-.127.212.024.312.158.4.5C96,110.735,95.491,111.084,95.1,110.748Z" transform="translate(-54.829 -43.974)" fill="#fabe4e"/><path d="M87.683,75.314l-.122-.128c.073-.115.2-.3.285-.214C87.991,75.118,87.839,75.246,87.683,75.314Z" transform="translate(-59.216 -64.723)" fill="#fac45d"/><path d="M91.593,75.278l-.139.139c-.1-.1-.3-.214-.139-.359C91.388,74.985,91.506,75.181,91.593,75.278Z" transform="translate(-57.067 -64.67)" fill="#ffdb95"/></g><g transform="translate(143.811 71.526)"><path d="M159.317,85.53a9.387,9.387,0,0,0-4.615-1.447,13.672,13.672,0,0,0-6.806.911c-.334.146-.857.261-.775.764.1.645.724.845,1.224,1.123.433.24.664-.03.9-.331a5.938,5.938,0,0,1,1.849-1.609,2.258,2.258,0,0,1,1.931-.239c.742.285,1.4.656,1.444,1.567a1.608,1.608,0,0,1-1.172,1.667,1.891,1.891,0,0,1-2.244-.53c-.652-.773-.721-.767-1.246.13a6.223,6.223,0,0,1-.394.614c-.872,1.169-1.417,1.245-2.668.538a2.783,2.783,0,0,1-1.537-2.581,3.176,3.176,0,0,1,2.214-3.473c.743-.331.74-.558.06-1.009a4.108,4.108,0,0,0-1.343-.549c-.321-.077-.777.141-.892-.4s-.206-1.166.232-1.547a17.663,17.663,0,0,1,4.345-2.989,2.186,2.186,0,0,1,1.6.1,20.22,20.22,0,0,1,4.68,2.23,1.736,1.736,0,0,0,2.181-.073,31.721,31.721,0,0,1,3.318-2.091,2.565,2.565,0,0,1,2.361-.146,30.918,30.918,0,0,1,5.821,3.4,1.05,1.05,0,0,1,.416.867,69.782,69.782,0,0,1,.109,7.388c-.025,1.188-1.113,1.659-2.151,1.052-.892-.524-1.789-1.041-2.657-1.6-1-.647-1.006-1.4,0-2.045a22.763,22.763,0,0,0,2.3-1.488c.946-.781.936-.96-.122-1.61a47.393,47.393,0,0,0-5.6-2.863,2.973,2.973,0,0,0-2.725.146c-2.452,1.327-4.94,1.816-7.567.4a8.752,8.752,0,0,0-2.265-.675,6.942,6.942,0,0,0-1.454-.085.537.537,0,0,0-.555.4c-.084.369.267.337.475.4a8.9,8.9,0,0,1,2.991,1.3c.353.275.827.044,1.243.014a16.417,16.417,0,0,1,8.378,1.352,1.2,1.2,0,0,1,.8,1.324c-.06,1.335-.008,2.676-.021,4.016a1.11,1.11,0,0,1-1.8,1.008,16.39,16.39,0,0,1-1.737-1.175c-.783-.615-.762-.837.085-1.4C158.325,86.026,158.768,85.827,159.317,85.53Z" transform="translate(-99.885 -67.189)" fill="#fff"/><path d="M132.942,84.329a3.276,3.276,0,0,0-3.317-.52c-1.248.326-1.1.332-1.284-.914a4.194,4.194,0,0,1,1.809-4.147c.83-.667,1.631-1.367,2.521-1.958a4.893,4.893,0,0,1,5.185-.35,14.7,14.7,0,0,1,3.076,1.945,1.078,1.078,0,0,0,1.729-.131,9.173,9.173,0,0,1,2.293-1.934,1.89,1.89,0,0,1,2.137.025c1.3.84,2.638,1.632,3.973,2.425a1.427,1.427,0,0,1,.747,1.344c.028,2.221.1,4.44.161,6.66a3.416,3.416,0,0,1-.144,1.169c-.388,1.185-.944,1.447-2.053.916a21.811,21.811,0,0,1-3.423-1.906c-.922-.671-.9-1.417.1-1.969,1.063-.587,2.157-1.12,3.25-1.65.715-.346.655-.685.051-1.071-1.359-.867-2.709-1.749-4.082-2.594a2.642,2.642,0,0,0-1.028-.346,1.4,1.4,0,0,0-1.716,1.436c-.021.4-.047.791-.1,1.183a2.717,2.717,0,0,1-3.726,2.312,1.86,1.86,0,0,1-1.408-2.059,1.835,1.835,0,0,1,1.988-1.106c.337.013.853.383.987-.051.144-.47-.463-.63-.808-.819a8.222,8.222,0,0,0-8.038-.251c-.266.131-.577.212-.739.544.413.35.962.321,1.43.5,1.24.487,2.119,1.232,2,2.69-.06.754.24,1.023.971.963a3.054,3.054,0,0,1,1.539.514,6,6,0,0,0,2.687.794,3.936,3.936,0,0,0,2.716-1.514c.172-.176.346-.517.653-.375.237.111.142.438.158.664.115,1.643-.223,3.132-1.768,4.011a4.46,4.46,0,0,1-4.686-.258c-.522-.3-.9-.751-.361-1.406a.676.676,0,0,0-.032-.99,1.4,1.4,0,0,0-1.427-.386c-.454.142-.4.531-.4.9.021,2.181-1.507,3.083-3.456,2.026a7.258,7.258,0,0,1-2.047-1.514c-.345-.392-.671-.834-.373-1.393a1.4,1.4,0,0,1,1.431-.773A3.982,3.982,0,0,0,132.942,84.329Z" transform="translate(-109.697 -67.236)" fill="#fff"/><path d="M246.243,85.354c0-1.379,0-2.554,0-3.731a.7.7,0,0,1,.266-.549,20.083,20.083,0,0,1,4.372-3.272,2.521,2.521,0,0,1,2.433-.033,22.72,22.72,0,0,0,4.78,1.771c1.083.259,1.616-.024,1.865-.894.351-1.238-.389-2.047-1.665-1.817-.848.152-1.155-.1-1.219-.995a2.519,2.519,0,0,1,2.333-2.656,2.713,2.713,0,0,1,2.981,2.339,6.72,6.72,0,0,1-.359,2.382c1.3-.851,2.094,0,2.97.547s1.74,1.121,2.626,1.656a1.079,1.079,0,0,1,.618,1.019c-.032,2.494-.041,4.99-.07,7.484a2.477,2.477,0,0,1-.4,1.384,1.415,1.415,0,0,1-2.059.467,19.948,19.948,0,0,1-3.086-2.565c-.527-.5-.136-.813.283-1.06,1.049-.615,2.127-1.183,3.163-1.819.939-.579.916-.758-.017-1.332-1.374-.843-2.744-1.694-4.115-2.542a3.238,3.238,0,0,0-3.619-.021,6.716,6.716,0,0,1-2.649.93,2.668,2.668,0,0,1-1.827-.378A8.239,8.239,0,0,0,249,80.645a.665.665,0,0,0-.345.092c-.369.267-1.071.384-.884.971.168.527.753.342,1.205.247a5.49,5.49,0,0,1,2.893.035,2.1,2.1,0,0,1,1.667,1.634,1.987,1.987,0,0,1-1.072,1.879c-.914.674-.927,1.36.041,2.01a3.694,3.694,0,0,0,3.138.546,10.448,10.448,0,0,0,4.7-3.03c.228-.233.473-.451.8-.758A5.445,5.445,0,0,1,259.9,88c-3.173,4-10.9,3.39-13.476-1.091,1.045-.321,2.094-.615,3.121-.973.471-.164,1.174-.369,1.072-.938s-.822-.471-1.324-.49A3.986,3.986,0,0,0,246.243,85.354Z" transform="translate(-41.088 -68.802)" fill="#fff"/><path d="M184.545,84.358a5.732,5.732,0,0,1-2.844,4.887,9.155,9.155,0,0,1-11.554-1.824c-.367-.456-.535-.693.255-.83a10.87,10.87,0,0,0,2.869-.894c.35-.169.83-.364.743-.808-.074-.384-.576-.4-.932-.425a4.691,4.691,0,0,0-3.475.78c0-1.359-.011-2.554.011-3.747a.752.752,0,0,1,.272-.449,19.517,19.517,0,0,1,4.316-3.2,2.591,2.591,0,0,1,2.436-.055,24.191,24.191,0,0,0,4.973,1.787c.576.128,1.1.16,1.45-.418a1.613,1.613,0,0,0,.115-1.808,1.265,1.265,0,0,0-1.533-.475c-.824.2-1.118-.044-1.2-.928a2.46,2.46,0,0,1,2.3-2.665,2.707,2.707,0,0,1,3.03,2.488,9.247,9.247,0,0,1-.378,2.175c1.164-.83,1.947-.128,2.776.4.9.574,1.794,1.153,2.716,1.688a1.277,1.277,0,0,1,.729,1.245c-.051,2.436-.073,4.872-.117,7.306a1.963,1.963,0,0,1-1.015,1.819,1.555,1.555,0,0,1-1.835-.386c-.857-.683-1.68-1.409-2.523-2.108-.58-.481-.44-.865.141-1.2,1.083-.617,2.187-1.2,3.25-1.852.854-.524.819-.679-.057-1.208q-2.031-1.229-4.049-2.48a3.352,3.352,0,0,0-3.785-.047,6.5,6.5,0,0,1-2.3.849,3,3,0,0,1-2.187-.365,8.361,8.361,0,0,0-4.671-1.006.66.66,0,0,0-.353.065c-.4.28-1.159.391-.989.993.161.574.8.326,1.278.242a5.6,5.6,0,0,1,2.978.112c.748.278,1.392.688,1.5,1.548a1.9,1.9,0,0,1-1.012,1.811c-.99.715-.963,1.449.114,2.1a3.9,3.9,0,0,0,3.507.315,11.587,11.587,0,0,0,4.574-3.238,1.432,1.432,0,0,0,.19-.416Z" transform="translate(-85.664 -68.737)" fill="#fff"/><path d="M246.132,83.707c.467.914.4,1.227-.5,1.759a3.551,3.551,0,0,1-3.965.052,1.643,1.643,0,0,1-.677-.723c-.109-.253-.215-.53.043-.75a.569.569,0,0,1,.683,0q.361.195.729.372a2.361,2.361,0,0,0,2.8-.5c-.009-.21-.115-.245-.244-.263-1.316-.168-1.229-.177-1.357-1.547-.259-2.8,1.7-4.316,3.342-6.026.367-.383.766-.136,1.153.087a5.369,5.369,0,0,0,3.869,1.041c-.522,2.521-2.176,3.48-4.56,2.694a2.216,2.216,0,0,0-1.343-.127c-.286.082-.527.24-.5.558.025.294.3.364.55.373a5.612,5.612,0,0,1,1.863.419,3.6,3.6,0,0,1,.894,6.328,8.493,8.493,0,0,1-4.5,1.586,13.406,13.406,0,0,1-9.61-2.374,6.69,6.69,0,0,1-.7-.588c-.263-.251-.612-.533-.5-.914.127-.435.576-.176.879-.221a10.727,10.727,0,0,0,2.828-.685c.223-.1.5-.221.444-.5-.041-.215-.3-.267-.516-.321a4.886,4.886,0,0,0-2.86.337c-.794.277-.965.079-.957-.72.027-3.1,0-3.1,2.222-5.269a12.618,12.618,0,0,1,2.021-1.7.929.929,0,0,1,1.169.006,5.334,5.334,0,0,0,3.97.989c.769-.1.74.285.516.815a3.249,3.249,0,0,1-3.76,1.868c-.683-.155-1.365-.312-2.055-.433a2.149,2.149,0,0,0-1.847.592.613.613,0,0,0-.239.648c.109.354.411.18.62.158a7.572,7.572,0,0,1,2.276-.009c.906.176,1.752.474,2.018,1.46a2.091,2.091,0,0,1-1.095,2.309c-.89.644-.911.837.117,1.352a8.772,8.772,0,0,0,8.721-.35c.318-.18.618-.432.554-.865s-.4-.653-.791-.8A3.475,3.475,0,0,0,246.132,83.707Z" transform="translate(-48.544 -67.229)" fill="#fff"/><path d="M131.372,85.273c-.843.006-1.547.264-2.282.2a1.736,1.736,0,0,1-1.751-1.9,1.706,1.706,0,0,1,1.994-1.541,3.284,3.284,0,0,1,2.925,2.373,3.8,3.8,0,0,1-1.77,4.076,4.379,4.379,0,0,1-4.834-.288,1.633,1.633,0,0,0-2.149-.057,9.051,9.051,0,0,1-1.3.656,2.721,2.721,0,0,1-2.781-.2,8.15,8.15,0,0,1-2.518-2.347c-.327-.5-.24-.772.373-.854.693-.092,1.384-.191,2.072-.313a4.618,4.618,0,0,0,.962-.278c.383-.16.89-.3.805-.841-.087-.568-.625-.509-1.03-.508a20.642,20.642,0,0,0-3.548.334c0-1.167,0-2.314,0-3.461a.711.711,0,0,1,.188-.492,24.727,24.727,0,0,1,3.465-3.5,1.39,1.39,0,0,1,1.683-.152c.962.519,1.977.944,2.931,1.477a1.014,1.014,0,0,0,1.159-.008,17.078,17.078,0,0,0,2.183-1.321.987.987,0,0,1,1.392.013c.479.372,1.015.669,1.52,1.009a3.27,3.27,0,0,0,2.641.766c-.721,2.241-2.722,2.875-4.876,1.567a4.27,4.27,0,0,0-2.037-.715,2.348,2.348,0,0,0-1.8.506,2.194,2.194,0,0,1-2.3.41,6.473,6.473,0,0,0-2.7-.721,2.183,2.183,0,0,0-1.816,1.2c.808,0,1.55,0,2.292,0a3.808,3.808,0,0,1,2.959,1.194,1.749,1.749,0,0,1-.228,2.831,12.94,12.94,0,0,1-1.389.87c-.462.269-.449.587-.035.827.7.4,1.487.747,2.222.169a3.2,3.2,0,0,1,3.883-.278A2.471,2.471,0,0,0,131.372,85.273Z" transform="translate(-116.534 -67.177)" fill="#fff"/><path d="M209.806,80.795c.576.1,1.142.161,1.684.308a2.175,2.175,0,0,1,1.757,2.344c-.049.9.052,1.37,1.164,1.226a3.811,3.811,0,0,1,2.36.868,2.537,2.537,0,0,0,3.193-.176c.482-.372.941-.772,1.422-1.145.24-.187.543-.326.527.171-.054,1.542-.239,3.057-1.563,4.112a3.947,3.947,0,0,1-4.142.468c-1.278-.5-1.511-1.045-1.028-2.322a.363.363,0,0,0-.131-.468,1.7,1.7,0,0,0-1.367-.375.519.519,0,0,0-.462.49.723.723,0,0,0,.028.179,2.069,2.069,0,0,1-.9,2.384,2.608,2.608,0,0,1-2.752-.367,8.9,8.9,0,0,1-1.974-1.465c-.343-.365-.636-.743-.4-1.3a1.291,1.291,0,0,1,1.2-.834c.789-.044,1.583-.022,2.369-.089.3-.025.788,0,.811-.416s-.476-.4-.762-.5a4.041,4.041,0,0,0-2.774,0c-.7.267-.94.074-1.052-.758a4.239,4.239,0,0,1,2.012-4.383c1.044-.734,2.017-1.566,3.13-2.206a4.716,4.716,0,0,1,4.051-.343,9.983,9.983,0,0,1,5.109,3.949,2.975,2.975,0,0,1-.475,3.6,3.339,3.339,0,0,1-3.829.34,1.663,1.663,0,0,1-.71-1.919c.242-.762.892-.917,1.609-.932a3.114,3.114,0,0,0,1.522-.217C217.825,78.606,211.73,78.433,209.806,80.795Z" transform="translate(-63.934 -67.208)" fill="#fff"/><path d="M230.368,82.489c-.7,0-1.4-.016-2.1,0-.832.022-1.246.369-1.234,1.3.027,2.137-.947,3.272-2.823,3.467a2.671,2.671,0,0,1-3.083-2.474c.019-.906.215-1.05,1.112-.848a3.242,3.242,0,0,0,2.951-.471c.25-.2.5-.451.323-.767-.187-.334-.481-.082-.721.006a2.981,2.981,0,0,1-2.882-.207,1.257,1.257,0,0,1,.019-2.323,2.885,2.885,0,0,1,3.279-.038,1.75,1.75,0,0,0,2.259-.043,5.792,5.792,0,0,1,5.318-.718c1.264.433,2.559.778,3.848,1.137a.786.786,0,0,1,.7.872c-.008,1.156.076,2.312.095,3.469a2.049,2.049,0,0,1-3.182,1.95,10.321,10.321,0,0,1-1.161-.724c-.9-.671-.83-1.381.155-1.884.406-.207.83-.381,1.232-.6.2-.106.5-.191.432-.506-.057-.269-.345-.223-.535-.261A22.172,22.172,0,0,0,230.368,82.489Z" transform="translate(-55.696 -65.391)" fill="#fff"/><path d="M207.495,83.858c-.356.041-.345.38-.462.6a1.807,1.807,0,0,1-2.347,1.023,1.727,1.727,0,0,1-1.424-1.664,2.268,2.268,0,0,1,1.866-1.979,2.76,2.76,0,0,1,3.337,2.82c-.014,2.686-1.991,4.737-4.331,4.456-1.868-.225-4.01-1.851-3.937-4.1.038-1.18-.119-2.361-.043-3.552.142-2.274,1.5-3.782,3.13-5.126a1.7,1.7,0,0,1,2.176-.141,8,8,0,0,0,3.386,1.267c.717.073.4.626.251.96a3.249,3.249,0,0,1-4.441,1.412,1.876,1.876,0,0,0-3,1.137c-.807,2.354.286,4.769,2.412,5.33,1.583.419,3.388-.622,3.516-2.031C207.605,84.135,207.639,83.978,207.495,83.858Z" transform="translate(-67.906 -67.227)" fill="#fff"/><path d="M170.234,84.262c0,.669-.014,1.338,0,2.006a2.357,2.357,0,0,1-.552,1.6c-1.129,1.416-1.658,1.5-3.19.512a17.617,17.617,0,0,1-2.714-2c-.77-.74-.68-1.128.324-1.444a27.812,27.812,0,0,0,3.427-1.232c.288-.133.724-.228.615-.66-.089-.351-.481-.308-.781-.31a7.945,7.945,0,0,0-3.223.481c-.96.4-1.161.229-1.163-.808a.594.594,0,0,0,0-.092c-.615-3.348,1.838-4.685,4.07-6.146a1.41,1.41,0,0,1,1.629.073,6.322,6.322,0,0,0,2.864,1.114c.766.063.709.506.452.922a2.4,2.4,0,0,1-1.964,1.308,6.3,6.3,0,0,1-2.7-.326,2.274,2.274,0,0,0-1.862.074c-.278.128-.6.332-.516.672.1.435.482.225.764.195a5.787,5.787,0,0,1,3.613.693,1.309,1.309,0,0,1,.808,1.37c-.063.663-.013,1.337-.013,2.006Z" transform="translate(-89.572 -67.191)" fill="#fff"/><path d="M247.227,89.147a10.249,10.249,0,0,0-2.858-1.593,1.69,1.69,0,0,0-1.147.176c-.514.188-1.038.346-1.545.55a2.076,2.076,0,0,1-2.157-.134,2.235,2.235,0,0,0-.674-.269c-.729-.225-1.509-.544-2.138.122a2.756,2.756,0,0,0-.547,2.572c.051.251.16.577.484.6.421.025.291-.375.383-.6.011-.028.013-.06.024-.089.267-.716.516-1.466,1.4-1.647a.992.992,0,0,1,1.09.66,2.4,2.4,0,0,1-.016,2.433,1.849,1.849,0,0,1-1.972.86,3.126,3.126,0,0,1-2.706-3.25,1.445,1.445,0,0,0,.008-.274c-.335-2.142,1.076-3.155,2.637-4.076a1.274,1.274,0,0,1,1.444.051c.8.486,1.654.9,2.491,1.325a.957.957,0,0,0,1.181-.123.411.411,0,0,1,.074-.051c3.521-2.135,2.279-1.89,6.017.106a.828.828,0,0,1,.463.808c.011,1.125.092,2.251.079,3.374a1.358,1.358,0,0,1-2.162,1.205c-.595-.364-1.153-.788-1.715-1.205-.376-.278-.448-.525.065-.791A9.037,9.037,0,0,1,247.227,89.147Z" transform="translate(-47.742 -61.984)" fill="#fff"/><path d="M221.386,80.061a1.2,1.2,0,0,1,.563-1.37c1.069-.807,2.134-1.623,3.173-2.467a1.181,1.181,0,0,1,1.343-.18,16.486,16.486,0,0,1,2.945,1.642,1.928,1.928,0,0,0,2.515-.038c.555-.425,1.12-.84,1.648-1.3a1.26,1.26,0,0,1,1.8-.1,23.16,23.16,0,0,0,3.173,2.145c.406.207.449.486.095.761-1.121.87-2.262,1.7-3.81,1.079a9.076,9.076,0,0,1-1.765-.728,2.031,2.031,0,0,0-2.671.182,2.376,2.376,0,0,1-3.01.27,15.849,15.849,0,0,0-2.757-.938c-.261-.082-.593-.131-.688.215-.089.327.255.35.463.446a2.492,2.492,0,0,1,1.038.721.661.661,0,0,1,.013.843c-.187.261-.406.182-.647.081a4.887,4.887,0,0,0-2.339-.275C221.635,81.126,221.133,80.987,221.386,80.061Z" transform="translate(-55.583 -67.204)" fill="#fff"/><path d="M245.249,92.5c-.049.7.294,1.6-.837,1.877a1.377,1.377,0,0,1-1.351-.305c-.131-.12-.324-.267-.149-.446.652-.666.122-.824-.4-1.038a1.17,1.17,0,0,1-.761-1.386,1.288,1.288,0,0,1,1.115-1.151C244.52,89.722,245.243,90.452,245.249,92.5Z" transform="translate(-43.713 -59.023)" fill="#fff"/><path d="M210.334,74.013a4.024,4.024,0,0,0-3.94.081c-1.014.607-.989.649-1.56-.418a5.968,5.968,0,0,0-4.6-3.233,2.947,2.947,0,0,0-2.591.864,1.6,1.6,0,0,0-.1,2.088c.579.726,1.064.443,1.681-.009a2.448,2.448,0,0,1,3.258.239,23.461,23.461,0,0,1,2.036,1.968.889.889,0,0,0,1.09.288c.816-.8,1.893-.821,2.388-.044.144.228.338.514.057.723a.512.512,0,0,1-.78-.195,1.034,1.034,0,0,0-.425-.6c-.065-.027-.125-.047-.179-.066a2.252,2.252,0,0,0-1.066.3,1.282,1.282,0,0,0,.383,2.118,4.177,4.177,0,0,0,4.77-.876C211.533,76.229,211.37,74.5,210.334,74.013Z" transform="translate(-69.609 -70.407)" fill="#fff"/><path d="M160.755,82.078c-.041.22.019.554-.272.486-.337-.077-.767-.248-.8-.65a.614.614,0,0,1,.656-.62C160.784,81.335,160.678,81.8,160.755,82.078Z" transform="translate(-91.434 -64.076)" fill="#fff"/><path d="M142.444,82.4c-.354.009-.452-.24-.463-.522-.016-.5.38-.641.758-.729.293-.07.329.193.342.4A.758.758,0,0,1,142.444,82.4Z" transform="translate(-101.733 -64.163)" fill="#fff"/><path d="M199.823,82.35c-.266-.172-.413-.462-.046-.637.992-.471.916-1.384.837-2.186-.087-.868-.83-1.167-1.628-1.352-2.876-.664-5.776-1.248-8.6-2.1a2.82,2.82,0,0,0-3.459,1.17c-.239.315-.487.623-.713.947-.794,1.128-.674,1.507.577,2.132.614.307,1.36.307,1.9.786-.108.223-.293.253-.452.335-2.1,1.076-3.249,1.885-2.959,4.506a3.14,3.14,0,0,0,2.314,2.989c1.809.58,3.5-.032,4.125-1.5a2.091,2.091,0,0,0-1.093-2.811c-1.27-.462-2.146.011-2.561,1.393-.068.225-.016.519-.369.53-.332.011-.471-.215-.58-.486a1.927,1.927,0,0,1,.767-2.244,3.991,3.991,0,0,1,2.953-.7c2.472.351,4.917.857,7.353,1.4.2.044.468.009.482.3.011.239-.169.369-.365.478-.533.293-1.06.595-1.59.89-.66.365-.535.81-.1,1.245a5.577,5.577,0,0,0,1.938,1.178,1.287,1.287,0,0,0,1.912-1.27c-.008-1.216-.062-2.433-.073-3.65A1.415,1.415,0,0,0,199.823,82.35Zm-1.025-.921c-.152.4-.536.41-.933.316-1.6-.378-3.2-.732-4.8-1.1-.947-.221-1.9-.425-2.833-.705-.414-.123-1.188-.084-1.027-.753a1.6,1.6,0,0,1,1.4-1.034c.233.066.467.131.7.2l6.54,2.006a3.383,3.383,0,0,1,.432.147C198.669,80.686,198.963,80.988,198.8,81.429Z" transform="translate(-76.573 -67.216)" fill="#fff"/><path d="M167.146,81.61c.021.348-.07.607-.484.612-.286,0-.487-.13-.489-.419,0-.413.318-.579.655-.631C167.122,81.127,167.132,81.4,167.146,81.61Z" transform="translate(-87.66 -64.148)" fill="#fff"/></g><g transform="translate(175.465 106.208)"><path d="M235.221,97.094c-.512,1.243-.628,1.327-1.873.818-.441-.18-.63.059-.7.293-.095.323.259.289.479.338.84.187,1.1.682,1.079,1.56-.065,2.8-.036,5.6-.014,8.4,0,.664,0,1.33-.726,1.572A2.667,2.667,0,0,1,231.3,110a4.434,4.434,0,0,1-1.034-.865.47.47,0,0,0-.484-.174c-.251.073-.161.293-.166.454-.014.369.043.785-.5.8-.37.006-.789.138-.99-.4-.172-.462-.625-.922-.191-1.379.261-.275.522-.357.163-.747s-.6-.047-.86.074a2.563,2.563,0,0,0-.512.468c-.152-.177-.285-.345-.429-.5-.267-.293-.606-.418-.81-.011-.115.231-.47.642.112.867a.79.79,0,0,1,.525.576c.07.345.03.769-.223.928a2.034,2.034,0,0,1-1.495.071c-.339-.068-.278-.419-.288-.69-.043-1.159-.152-2.325,1.227-2.913a.963.963,0,0,1,.979.1c.242.142.449.754.761.277.391-.6,1.876-.28,1.308-1.707a3.526,3.526,0,0,1-2.841.789,1.658,1.658,0,0,1-1.616-1.571c0-.03,0-.062,0-.092-.076-1.9-.047-1.838,1.656-2.673.936-.457,2.077-.645,2.657-1.7a2.548,2.548,0,0,0,.068-2.168c-.158-.463-.467-.533-.822-.188-.217.212-.4.456-.633.72-.2-.236-.338-.4-.475-.569-.2-.251-.449-.452-.778-.329a.674.674,0,0,0-.384.734c.014.285-.166.614.375.754.456.117.536.56.376,1.091-.258.851-.892.44-1.357.481a.592.592,0,0,1-.69-.715c.074-.995-.275-2.081.745-2.844.62-.462,1.208-.726,1.8,0,.242.3.391.21.622-.016a1.127,1.127,0,0,1,1.39-.323,1.774,1.774,0,0,1,1.136,1.488c.095,2.178-.011,2.393-2.053,3.352-.593.278-1.189.55-1.792.808-.362.155-.606.345-.568.8.04.484,0,.974.011,1.46a.889.889,0,0,0,.876.943c.933.106,2.474-1.2,2.395-2.131-.07-.8.255-1.158,1.145-1.333-.221,1.678.3,3.325-.289,4.979a1.144,1.144,0,0,0,.552,1.253,6.726,6.726,0,0,1,1.517,1.115,1.125,1.125,0,0,0,1.175.291c.457-.157.31-.607.312-.954.006-2.861-.011-5.722.014-8.584.006-.615-.077-1.083-.773-1.2-.149-.025-.345-.019-.319-.228a3.256,3.256,0,0,1,.984-1.955.89.89,0,0,1,1.237.016A1.933,1.933,0,0,0,235.221,97.094Z" transform="translate(-85.729 -89.929)" fill="#fff"/><path d="M174.416,97.093c-.487,1.161-.607,1.207-1.71.89-.269-.077-.644-.414-.826.108-.2.569.4.5.6.543.829.161,1.039.653,1.02,1.414-.033,1.276,0,2.554-.011,3.832A1.956,1.956,0,0,1,171.367,106a7.1,7.1,0,0,1-2.428-.146,1.742,1.742,0,0,1-1.3-1.781c0-1.857.006-3.712,0-5.567,0-1.1-.373-1.428-1.575-1.446-1.068-.014-1.68.471-1.711,1.406-.027.759-.011,1.522,0,2.281.006.71-.215,1.469.875,1.726.524.123.595,1.866.206,2.678-.244.5-.5.9-1.2.887-.862-.011-1.194-.3-1.177-1.177.041-2.037.009-4.076.014-6.115a1.979,1.979,0,0,1,2.2-2.221,6,6,0,0,1,2.686.22,1.563,1.563,0,0,1,.974,1.564c-.027,1.885-.011,3.772-.008,5.658a1.387,1.387,0,0,0,1.507,1.5c1.129.032,1.762-.452,1.781-1.428.025-1.338-.009-2.676.013-4.014a1,1,0,0,0-.837-1.109c-.508-.095-.557-.242-.313-.639.123-.2.2-.433.305-.645.683-1.314.887-1.4,2.184-.726A2.7,2.7,0,0,0,174.416,97.093Z" transform="translate(-121.133 -89.924)" fill="#fff"/><path d="M146.224,103.336c0,1.034-.006,2.069,0,3.1,0,.389.028.732-.544.679-.391-.036-.84.078-.74-.568.09-.569-.288-.514-.671-.546-.951-.079-1.925.239-2.852-.282a1.5,1.5,0,0,1-.873-1.438c.011-1.126,0-2.251,0-3.377a1.974,1.974,0,0,0-.563-1.808c-.391-.323-.264-.848.163-1.174.568-.432,1.144-.86,1.748-1.24.745-.467,1.411-.077,1.988.348,1.257.925,1.6.864,2.64-.2a1.267,1.267,0,0,1,1.169-.308,4.892,4.892,0,0,1,3.059,2.66,6.983,6.983,0,0,1,.043,1.363c0,1.613-.021,3.227.014,4.838.013.549-.2.644-.686.644s-.623-.139-.617-.62c.027-1.825,0-3.65.014-5.477.009-1.132-.957-1.431-1.65-1.944a1.255,1.255,0,0,0-1.689.127,2.114,2.114,0,0,1-2.993,0,1.407,1.407,0,0,0-1.452-.332,1.184,1.184,0,0,0-.773.7c-.089.3.272.489.557.612.361.158.308.478.308.778v4.108c0,1.115.3,1.433,1.416,1.49,1.281.063,1.7-.321,1.7-1.577,0-1.216.03-2.434-.013-3.65-.019-.563.22-.628.7-.636.492-.006.622.16.607.63C146.2,101.266,146.224,102.3,146.224,103.336Z" transform="translate(-134.681 -89.927)" fill="#fff"/><path d="M179.527,99.354c-.065-.247-.3-.286-.487-.362-1.006-.422-1.009-.416-.372-1.37.781-1.169,1.188-1.474,2.559-.734a2.386,2.386,0,0,0,.962.193c-.3,1.079-.667,1.259-1.776.932-.509-.15-1.12-.493-1.373.43a3.517,3.517,0,0,1,2,.883c.183.209.462.1.7.109a1.872,1.872,0,0,1,1.87,1.958c.009.822.032,1.645-.006,2.464-.043.955.087,1.531,1.515,1.605,1.166.059,1.737-.408,1.776-1.52.047-1.276.006-2.554.014-3.832a1.178,1.178,0,0,0-.8-1.177c-.168-.071-.5.049-.471-.293a3.322,3.322,0,0,1,1.019-1.938c.37-.418.841-.177,1.242.028a2.248,2.248,0,0,0,1.1.359c-.264,1.129-.628,1.322-1.681.894-.275-.112-.569-.335-.737.108-.193.506.294.456.519.508a1.087,1.087,0,0,1,.925,1.3c-.052,1.4-.047,2.8,0,4.2a1.527,1.527,0,0,1-1.213,1.751,5.79,5.79,0,0,1-3.541-.1,1.421,1.421,0,0,1-.936-1.487c.024-.913.016-1.827,0-2.739-.017-1.1-.58-1.555-1.857-1.539-1.072.014-1.438.383-1.431,1.492,0,.666-.258,1.4.791,1.681.478.127.408,1.658,0,2.352-.44.756-1.15.5-1.773.454-.329-.025-.308-.394-.307-.674,0-1.338-.014-2.678.006-4.016C177.774,100.273,178.242,99.791,179.527,99.354Z" transform="translate(-112.581 -89.928)" fill="#fff"/><path d="M162.171,104.264c0-2.07.008-4.139,0-6.21-.006-1.313-.368-1.934-1.226-2.218a1.74,1.74,0,0,0-1.794.429c-.31.269-.571.606-1.066.411a1.05,1.05,0,0,1-.664-1.153,3.068,3.068,0,0,1,.142-1.428,1.213,1.213,0,0,0-.033-.71c-.059-.269-.876-.288-.3-.748.387-.313,1.332.054,1.544.486a1.908,1.908,0,0,1-.092,1.48c-.084.285-.329.6-.07.827.125.109.5-.006.736-.1a3.5,3.5,0,0,1,1.966-.125c1.522.291,2.116,1.129,2.134,3.089.032,4.048.024,8.1,0,12.146-.009,1.5-.69,2.05-2.093,2.072-.611.009-1.221.011-1.83,0a1.715,1.715,0,0,1-1.926-1.92,7.623,7.623,0,0,0-.006-.913c-.066-.541.177-.656.675-.652.468,0,.683.125.615.614a4.213,4.213,0,0,0,0,.547c0,1.673,1.306,2.407,2.807,1.56a1.192,1.192,0,0,0,.49-1.185C162.168,108.465,162.171,106.364,162.171,104.264Z" transform="translate(-124.636 -92.227)" fill="#fff"/><path d="M212.287,97.117c-.492,1.224-.611,1.308-1.851.8-.433-.179-.626.043-.7.282-.1.326.247.3.467.345a1.19,1.19,0,0,1,1.064,1.55c-.146.724.212.887.859.819.451-.047.919.036,1.368-.024.361-.047.96.315,1.039-.316s.312-1.485-.715-1.659c-.626-.108-.558-.418-.338-.811.2-.364.422-.72.66-1.063a1.068,1.068,0,0,1,1.574-.324,4.934,4.934,0,0,0,.527.337c.193.081.576-.082.5.321-.065.335-.157.728-.615.785a1.617,1.617,0,0,1-1.126-.231c-.323-.212-.527-.163-.7.207-.247.541.2.334.4.4.713.245,1.231.541,1.172,1.5-.1,1.667-.022,3.344-.032,5.017,0,.345.146.848-.332.924a1.6,1.6,0,0,1-1.469-.2,1.75,1.75,0,0,1,.293-2.866c.443-.253.177-.641.218-.962.049-.384-.28-.313-.508-.316-.732-.006-1.465.03-2.194-.013-.522-.03-.6.207-.587.645.025.943.014,1.885,0,2.828,0,.345.136.837-.375.887-.481.049-1.026.229-1.457-.239a1.761,1.761,0,0,1,.353-2.826c.259-.163.193-.346.2-.533.013-.7-.013-1.4.009-2.1.022-.666.043-1.306-.856-1.4a.236.236,0,0,1-.239-.307,3.13,3.13,0,0,1,1.061-1.919,1.033,1.033,0,0,1,1.386.223C211.64,97.155,211.991,96.972,212.287,97.117Z" transform="translate(-94.476 -89.927)" fill="#fff"/><path d="M200.784,98.281c-.082-.059-.106-.079-.133-.093-.391-.234-.569-.976-1.139-.7-.547.267-.468.917-.46,1.465.008.637.019,1.276,0,1.915-.022.685-.1,1.306.832,1.563.555.153.677,1.824.269,2.657-.2.418-.34.89-.971.93-1.15.068-1.4-.134-1.4-1.286q0-2.875,0-5.749a2.841,2.841,0,0,1,.146-.963c.579-1.67,1.567-1.968,2.883-.811.454-.41.832-1.017,1.607-.562a2.014,2.014,0,0,1,1.227,1.83c-.022,2.251-.01,4.5-.006,6.752,0,.433.073.794-.615.807-.737.014-.672-.372-.671-.846q.012-3.238,0-6.479c0-.46.158-1.074-.406-1.253C201.324,97.263,201.1,97.88,200.784,98.281Z" transform="translate(-100.934 -89.921)" fill="#fff"/><path d="M232.5,101.757c.742.329,1.463.451,1.287,1.384a.4.4,0,0,0,.332.475c.815.144,1.289.788,1.89,1.245.563.427.973.289,1.05-.4a14.864,14.864,0,0,0,.014-1.548c0-.373-.256-.425-.539-.584-1.139-.636-2.516-.821-3.45-1.843a2.921,2.921,0,0,1-.448-2.77A1.778,1.778,0,0,1,234.7,96.52c1.023.076,2.124-.343,3.037.512a3.656,3.656,0,0,1,.468,3.178c-.389.525-.951.308-1.438.294a.657.657,0,0,1-.612-.671.8.8,0,0,1,.633-.949c.5-.138.3-.541.232-.81-.187-.751-.974-1.134-1.972-1.015a1.459,1.459,0,0,0-1.284,1.454c-.16,1.705.723,2.265,1.911,2.751.8.324,1.577.69,2.363,1.041.13.059.31.076.305.28a6.842,6.842,0,0,1-.221,2.771c-.391.857-2.11.919-2.76.128-.111-.136-.158-.338-.288-.446-.359-.3-.595-.96-1.106-.8-.452.144-.15.747-.179,1.139-.032.473-.226.642-.68.634-.414-.006-.618-.168-.617-.595C232.5,104.238,232.5,103.057,232.5,101.757Z" transform="translate(-80.749 -89.923)" fill="#fff"/><path d="M140.036,97.1c-.465,1.175-.664,1.276-1.757.821-.335-.139-.615-.193-.756.164-.2.5.237.38.506.463a1.359,1.359,0,0,1,1.123,1.542c-.089,2.645-.033,5.294-.028,7.942,0,.9.353,1.261,1.232,1.275,1.59.027,2.007-.22,2.059-1.232a5.629,5.629,0,0,0,0-.731c-.032-.391.043-.6.527-.612.53-.011.609.22.58.655a6.443,6.443,0,0,0,0,1.185.945.945,0,0,1-.615,1.017,5.367,5.367,0,0,1-4.508-.1,1.189,1.189,0,0,1-.561-1.227c0-2.648-.011-5.3.01-7.943.006-.747-.138-1.322-1-1.427-.4-.049-.326-.3-.212-.524a13.314,13.314,0,0,1,.868-1.556.876.876,0,0,1,1.284-.136A2.239,2.239,0,0,0,140.036,97.1Z" transform="translate(-136.547 -89.933)" fill="#fff"/><path d="M189.945,99.815c-.394-.338-1.18-.274-1.087-1.113.044-.4.081-.751.5-.965a6.886,6.886,0,0,0,.641-.49c1.537-1.027,1.665-1.039,3.167.008a1.309,1.309,0,0,0,1.942-.077,1.643,1.643,0,0,1,2.539-.209c.318.22.642.43.958.655a2.229,2.229,0,0,1,1.087,2.037c-.068,1.884-.021,3.772-.021,5.661,0,.359.089.705-.512.718-.623.013-.592-.315-.59-.739q.017-2.51,0-5.022a3.484,3.484,0,0,0-2.513-2.638c-.41,0-.688.343-1.009.543-1.178.732-1.656.759-2.763,0a1.587,1.587,0,0,0-1.7-.342c-.729.337-.788.568-.225,1.174.123.131.236.272.353.41C190.645,99.924,190.355,99.987,189.945,99.815Z" transform="translate(-106.123 -89.931)" fill="#fff"/><path d="M190.144,98.753a1.025,1.025,0,0,0,.762-.392c.916.109,1.816-.183,2.755-.009a1.986,1.986,0,0,1,1.8,1.854c.022,1.4-.019,2.8.017,4.2.014.549-.258.554-.667.566-.454.014-.65-.092-.636-.6.035-1.276.017-2.554.009-3.832-.008-1.137-.546-1.616-1.783-1.612-1.174.006-1.509.357-1.51,1.6,0,1.125.011,2.251-.008,3.375,0,.367.19.917-.331,1.012-.563.1-1.2.225-1.662-.391a1.786,1.786,0,0,1,.5-2.664c.362-.2.226-.474.209-.7A3.9,3.9,0,0,1,190.144,98.753Z" transform="translate(-106.322 -88.869)" fill="#fff"/><path d="M216.312,98.773a5.474,5.474,0,0,1,3.983-.223,1.486,1.486,0,0,1,1.169,1.569c-.038,1.4-.019,2.8,0,4.2,0,.406-.009.674-.56.674-.566,0-.55-.294-.547-.686q.017-1.779,0-3.559a1.745,1.745,0,0,0-2.5-1.749,1.18,1.18,0,0,0-.794,1.269c.017,1.125.025,2.251,0,3.375-.014.544.251,1.283-.723,1.332-1.061.054-1.594-.331-1.634-1.311-.028-.729-.316-1.634.89-1.825.365-.059.176-.462.183-.7.032-.832-.141-1.7.56-2.377Z" transform="translate(-91.119 -88.884)" fill="#fff"/><path d="M223.674,97.152c0,.274.024.55,0,.821-.095.946-.707,1.287-1.555.881a3.742,3.742,0,0,0-.557-.291c-.318-.09-.288.251-.378.4-.157.261.078.277.263.3,1.095.117,1.4.742,1.338,1.792-.084,1.547-.009,3.1-.03,4.655,0,.381.22.941-.43,1.023-.593.076-1.215.136-1.632-.492a1.781,1.781,0,0,1,.582-2.589c.27-.153.2-.343.2-.528.014-.669-.01-1.34.009-2.009.021-.716.092-1.441-.94-1.5-.141-.008-.316-.141-.274-.289a3.769,3.769,0,0,1,1.139-1.89.79.79,0,0,1,1.137.059c.286.258.475.046.544-.188.1-.335.081-.7-.38-.767-.356-.052-.748-.052-.848-.476-.066-.283-.1-.677.285-.769a1.065,1.065,0,0,1,1.177.234A2.228,2.228,0,0,1,223.674,97.152Z" transform="translate(-87.851 -90.661)" fill="#fff"/><path d="M149.361,98.773a5.474,5.474,0,0,1,3.983-.223,1.485,1.485,0,0,1,1.167,1.571c-.038,1.4-.019,2.8,0,4.2,0,.413-.019.669-.565.671-.571,0-.544-.3-.541-.691q.014-1.779,0-3.56A1.746,1.746,0,0,0,150.891,99a1.19,1.19,0,0,0-.788,1.275c.017,1.278.008,2.556,0,3.834,0,.425.158.881-.617.894-.747.011-.667-.384-.664-.853.008-1.216.04-2.436-.011-3.65a2.421,2.421,0,0,1,.563-1.74Z" transform="translate(-129.413 -88.884)" fill="#fff"/><path d="M189.035,97.122c-.5,1.215-.618,1.3-1.863.788-.441-.18-.628.059-.7.291-.1.324.258.289.478.338.837.188,1.123.675,1.079,1.556-.081,1.639-.014,3.284-.028,4.924,0,.364.18.9-.392.962-.508.057-1.091.231-1.512-.319a1.737,1.737,0,0,1,.441-2.754c.251-.166.177-.356.182-.541.016-.669-.01-1.338.009-2.007s.1-1.379-.867-1.476a.237.237,0,0,1-.228-.316,3.156,3.156,0,0,1,1.071-1.911c.487-.372,1-.117,1.384.234C188.39,97.16,188.744,96.966,189.035,97.122Z" transform="translate(-108.009 -89.927)" fill="#fff"/><path d="M157.216,97.084c-.5,1.254-.626,1.341-1.857.829-.429-.179-.623.03-.705.272-.108.321.234.3.457.35a1.208,1.208,0,0,1,1.085,1.541c-.074.5.008,1.031-.019,1.545a1.433,1.433,0,0,0,.644,1.514c.846.552.327,1.419.176,2.134a.986.986,0,0,1-1.159.759c-.712-.033-.947-.361-.941-1.027.019-1.7-.011-3.4.017-5.1.01-.5-.122-.846-.614-.946-.628-.128-.6-.438-.337-.89.177-.308.274-.666.465-.962a1.042,1.042,0,0,1,1.613-.38A1.939,1.939,0,0,0,157.216,97.084Z" transform="translate(-126.519 -89.923)" fill="#fff"/><path d="M157.489,98.4c.183.221.457.076.679.179.6.275,1.022.552.974,1.379-.095,1.637-.016,3.282-.038,4.922,0,.388.233.968-.35,1.09a1.466,1.466,0,0,1-1.715-.479,1.778,1.778,0,0,1,.587-2.584c.269-.155.2-.345.2-.531.016-.667-.008-1.337.011-2.006.019-.716.092-1.439-.939-1.5-.142-.008-.316-.142-.275-.289a3.5,3.5,0,0,1,1.208-1.941c.482-.357.93.03,1.4.229.625.264,1.148.489.44,1.142a1.039,1.039,0,0,1-1.267-.038C157.858,97.628,157.582,97.8,157.489,98.4Z" transform="translate(-124.873 -89.919)" fill="#fff"/><path d="M216.189,99.8a1.2,1.2,0,0,1-1.232-.835,1.263,1.263,0,0,1,.432-1.379c.174-.171.343-.346.519-.514.754-.721,1.12-.767,1.8-.011.563.622.944.666,1.518.011.709-.813,1.145-.78,1.678.112a1.126,1.126,0,0,0,1.087.639c-.524,1.117-1,1.234-1.813.37-.5-.531-.862-.476-1.235.054-.527.751-1.052.585-1.616.054a4.386,4.386,0,0,0-.584-.41.451.451,0,0,0-.7.158c-.158.255-.256.652.044.773.785.315.478.629.081.993Z" transform="translate(-90.979 -89.923)" fill="#fff"/><path d="M149.648,99.8a1.2,1.2,0,0,1-1.231-.835,1.263,1.263,0,0,1,.432-1.379c.174-.171.343-.346.519-.514.754-.721,1.12-.767,1.8-.011.563.623.944.666,1.517.009.709-.811,1.147-.778,1.678.114a1.128,1.128,0,0,0,1.087.639c-.524,1.117-1,1.234-1.811.37-.5-.531-.862-.476-1.235.054-.528.751-1.053.585-1.618.054a4.471,4.471,0,0,0-.582-.41.453.453,0,0,0-.7.158c-.157.255-.256.652.044.773.786.315.478.629.082.993Z" transform="translate(-129.684 -89.923)" fill="#fff"/><path d="M183.651,95.207c-.606,0-1.213-.009-1.819,0-.574.011-1.117.013-1.185-.761a1.561,1.561,0,0,1,1.014-1.612,4.887,4.887,0,0,1,4.418,1.49c.2.187.4.425.31.686s-.41.191-.644.191C185.046,95.211,184.348,95.207,183.651,95.207Z" transform="translate(-110.898 -92.092)" fill="#fff"/><path d="M181.585,106.446a.891.891,0,0,1-1.011-.677,1.9,1.9,0,0,1,.424-2.151,2.521,2.521,0,0,1,2.516-.566,3.233,3.233,0,0,1,1.86,1.346c.416.541.664,1.208,1.33,1.541.07.035.1.206.1.312-.008.214-.19.191-.337.2a1.361,1.361,0,0,1-1.314-.568c-.484-.694-.721-1.582-1.558-2.017a1.5,1.5,0,0,0-2.1.55,1.159,1.159,0,0,0,.324,1.355c.169.2.688-.024.563.41C182.281,106.524,181.887,106.451,181.585,106.446Z" transform="translate(-111.033 -86.16)" fill="#fff"/><path d="M218.311,95.2c-.607,0-1.215-.011-1.822,0-.554.013-1.041-.028-1.121-.737-.1-.856.229-1.5.917-1.626a5,5,0,0,1,4.449,1.439.753.753,0,0,1,.283.721c-.112.375-.462.18-.7.19C219.649,95.223,218.98,95.2,218.311,95.2Z" transform="translate(-90.709 -92.089)" fill="#fff"/><path d="M234.486,95.442c-.686.133-1.153-.144-1.185-.97-.028-.786.444-1.15,1.3-1.242.734-.077,1.526.566,2.206-.168.122-.131.274-.234.41-.354s.115-.552.493-.253c.3.239.06.446-.036.626a1.853,1.853,0,0,1-2.336.815.768.768,0,0,0-1.028.264.415.415,0,0,0,.021.577.393.393,0,0,0,.49.123c.3-.16.536-.568.928-.158a.339.339,0,0,1,.073.419,1.2,1.2,0,0,1-1.072.321C234.695,95.438,234.633,95.442,234.486,95.442Z" transform="translate(-80.268 -92.326)" fill="#fff"/><path d="M150.331,93.792a7.954,7.954,0,0,0-.006-.911c-.054-.475.18-.546.588-.546.392,0,.539.12.522.52-.027.606.009,1.215-.013,1.821-.014.356-.046.753-.547.769-.528.017-.555-.351-.546-.743C150.337,94.4,150.331,94.1,150.331,93.792Z" transform="translate(-128.537 -92.335)" fill="#fff"/><path d="M203.881,102.974c-.527.119-.663-.114-.683-.667-.027-.688.373-.574.792-.612.542-.049.705.122.718.686C204.722,103.059,204.347,103.008,203.881,102.974Z" transform="translate(-97.779 -86.896)" fill="#fff"/><path d="M239.2,102.388c.152.6-.231.577-.663.607-.571.041-.595-.24-.617-.691-.028-.569.244-.6.7-.615C239.173,101.668,239.3,101.907,239.2,102.388Z" transform="translate(-77.583 -86.895)" fill="#fff"/><path d="M171.95,101.735c.549-.111.756.047.742.588-.013.47-.082.7-.631.682-.47-.014-.728-.081-.677-.63C171.423,101.958,171.345,101.512,171.95,101.735Z" transform="translate(-116.287 -86.902)" fill="#fff"/><path d="M224.885,104.563c.21-.117.2.046.193.089-.011.106-.03.258-.1.3a.147.147,0,0,1-.226-.152A.668.668,0,0,1,224.885,104.563Z" transform="translate(-85.242 -85.246)" fill="#fff"/><path d="M163.872,101.5c.195-.248-.329-.943.329-.924s.338.707.389,1.113c.017.128-.122.269-.147.41-.046.272-.059.628-.421.555-.3-.06-.1-.413-.144-.631A3.261,3.261,0,0,1,163.872,101.5Z" transform="translate(-120.664 -87.542)" fill="#fff"/><path d="M178.553,100.865c.8.6.633,1.118.187,1.77C178.444,102.053,178.621,101.531,178.553,100.865Z" transform="translate(-112.113 -87.373)" fill="#fff"/><path d="M212.646,100.953v1.523C211.912,101.9,211.923,101.473,212.646,100.953Z" transform="translate(-92.6 -87.322)" fill="#fff"/><path d="M209.708,102.549c-.579-.609-.615-1.087,0-1.658Z" transform="translate(-94.252 -87.358)" fill="#fff"/><path d="M198.592,101.728a1.1,1.1,0,0,1,0-.291c.13-.288-.294-.848.286-.872s.4.543.443.9a.216.216,0,0,1,0,.09c-.131.4-.052,1.1-.541,1.076C198.369,102.617,198.742,101.962,198.592,101.728Z" transform="translate(-100.472 -87.548)" fill="#fff"/><path d="M189.386,100.953v1.523C188.652,101.9,188.662,101.473,189.386,100.953Z" transform="translate(-106.13 -87.322)" fill="#fff"/><path d="M215.491,102.589a1.272,1.272,0,0,1-.392-1.487c.025-.084.258-.106.4-.155A3.979,3.979,0,0,1,215.491,102.589Z" transform="translate(-90.908 -87.326)" fill="#fff"/><path d="M221.2,102.615c-.71-.881-.691-1.155,0-1.667Z" transform="translate(-87.61 -87.325)" fill="#fff"/><path d="M186.431,102.527c-.59-.557-.566-1.036,0-1.642Z" transform="translate(-107.783 -87.362)" fill="#fff"/><path d="M155.492,101.026a1.264,1.264,0,0,1-.066,1.322A1.563,1.563,0,0,1,155.492,101.026Z" transform="translate(-125.632 -87.28)" fill="#fff"/><path d="M157.5,102.692c-.506-.7-.723-1.2.016-1.787A4.542,4.542,0,0,1,157.5,102.692Z" transform="translate(-124.63 -87.35)" fill="#fff"/><path d="M184.828,94.3c-1.057,0-2.013,0-2.97,0-.285,0-.622-.022-.6-.362a.61.61,0,0,1,.618-.546A3.473,3.473,0,0,1,184.828,94.3Z" transform="translate(-110.543 -91.731)" fill="#fff"/><path d="M219.449,94.3c-1.115,0-2.077,0-3.04,0-.253,0-.492.009-.468-.365.019-.316.131-.53.471-.541A3.428,3.428,0,0,1,219.449,94.3Z" transform="translate(-90.367 -91.73)" fill="#fff"/></g></g></svg>