<svg xmlns="http://www.w3.org/2000/svg" width="62.716" height="67.832" viewBox="0 0 62.716 67.832"><path d="M121.114,105.758c0-1.142-.008-2.286,0-3.431a1.813,1.813,0,0,0-.383-1.254,5.819,5.819,0,0,1-1.166-2.32,22.727,22.727,0,0,0-3.114-5.438c-.547-.843-1.2-1.6-1.768-2.434a8.5,8.5,0,0,0-1.525-1.452,38.322,38.322,0,0,1-3.657-3.6,53.054,53.054,0,0,0-4.351-3.657,6.842,6.842,0,0,1-2.217-2.928,2.524,2.524,0,0,1,.07-2.053c.18-.324-.066-.592-.19-.865-.193-.418-.558-.778-.437-1.306.025-.114.014-.318.063-.329.906-.28.2-.66.054-.977-.293-.637-.634-1.254-.935-1.89a1.171,1.171,0,0,1,.106-1.278.571.571,0,0,0,.085-.71c-.236-.4-.37-.87.059-1.145a1.191,1.191,0,0,1,1.441.079c.622.484,1.254.96,1.9,1.4a70.786,70.786,0,0,0,6.346,4.043,25.924,25.924,0,0,1,5.033,3.005,37.727,37.727,0,0,1,4.38,3.7c.558.647.993,1.381,1.616,2a20.144,20.144,0,0,1,2.2,2.129,13.923,13.923,0,0,1,2.015,3.446,18.428,18.428,0,0,0,2.51,4.544,8.264,8.264,0,0,1,1.76,5.091,11.672,11.672,0,0,0,.5,3.042,14.405,14.405,0,0,1,.837,5.251,17.076,17.076,0,0,1-.547,2.548c-.418,1.673-.837,3.336-1.14,5.034a12.047,12.047,0,0,1-2.788,5.449,13.083,13.083,0,0,0-1.721,3.163,9.147,9.147,0,0,1-3.288,3.666c-.813.585-1.683,1.088-2.52,1.64a4.647,4.647,0,0,0-1.1,1.174,10.6,10.6,0,0,1-3.407,2.5,8.871,8.871,0,0,1-2.733,1.045c-.626.127-.674.5-.32.892.4.451.59,1.061,1.158,1.393.369.215.187.766-.307,1.049a.915.915,0,0,1-.389.149c-1.667.054-3.361.65-4.919-.62a8.075,8.075,0,0,0-2.682-1.56,2.193,2.193,0,0,0-2.138.566,2.29,2.29,0,0,1-1.5.6,6.337,6.337,0,0,1-2.758-.232,2.05,2.05,0,0,1-.742-.378,2.037,2.037,0,0,0-2.246-.457,12.583,12.583,0,0,0-3.026,1.813c-.141.089-.261.247-.4.263a8.633,8.633,0,0,1-4.305-.139c-.745-.293-.788-.641-.228-1.188a7.2,7.2,0,0,0,.976-1.371c.259-.406.206-.642-.351-.772a10.47,10.47,0,0,1-5.705-3.159,36,36,0,0,0-4.308-3.382,8.83,8.83,0,0,1-3.144-3.709c-.592-1.9-2.02-3.192-2.97-4.818a10.546,10.546,0,0,1-1.514-4.065,16.319,16.319,0,0,0-.747-3.291,16.141,16.141,0,0,1-.857-6.352,1.287,1.287,0,0,1,.119-.547A12.117,12.117,0,0,0,70.711,100c.329-1.267.193-2.58.52-3.839a8.822,8.822,0,0,1,1.635-3.253,18.46,18.46,0,0,0,2.545-4.7,9.607,9.607,0,0,1,1.944-3.163c1.621-1.673,3.068-3.538,4.767-5.093a32.169,32.169,0,0,1,7.652-5.319,64.276,64.276,0,0,0,8.416-5.371c.47-.326.826-.848,1.514-.745.626.1.9.46.7,1.082a1.319,1.319,0,0,0,.065,1.14,1.3,1.3,0,0,1-.041,1.167c-.384.75-.754,1.506-1.15,2.249-.1.185-.229.294.081.4.633.221.41.7.239,1.1-.117.278-.294.527-.437.8a1.085,1.085,0,0,0,.033,1.093,2.8,2.8,0,0,1-.558,2.7,17.615,17.615,0,0,1-4.184,3.886,13.239,13.239,0,0,0-1.862,1.684A35.443,35.443,0,0,1,88.2,89.993a9.39,9.39,0,0,0-1.648,1.964,39.96,39.96,0,0,0-3.405,5.191,16.945,16.945,0,0,1-1.425,3.285,5.3,5.3,0,0,0-.71,3.068c-.206,1.637-.047,3.272-.133,4.906a4.4,4.4,0,0,0,.342,2.006,18.557,18.557,0,0,0,2.327,4.574,20.28,20.28,0,0,0,1.813,1.643c1.036.985,2.067,1.972,3.067,3a5.118,5.118,0,0,0,1.673,1.254,6.6,6.6,0,0,1,2.145,1.634c.493.5,1.044.941,1.533,1.442.44.441,1.06.06,1.517.4.106.078.293.047.389.131,1.034.9,1.813.109,2.554-.459a4.833,4.833,0,0,1,3.4-.826,4.645,4.645,0,0,1,2.72,1.254,1.281,1.281,0,0,0,1.639.2,4.939,4.939,0,0,1,1.732-.487c.688-.106,1.218-.748,1.735-1.245a11.632,11.632,0,0,1,3.067-2.39c.886-.419,1.457-1.373,2.232-2.032.9-.775,1.684-1.7,2.572-2.5a7.89,7.89,0,0,0,1.283-1.18,21.449,21.449,0,0,0,2.456-5.131,1.69,1.69,0,0,0,.032-.557Q121.118,107.442,121.114,105.758Z" transform="translate(-69.64 -68.484)" fill="#e48c11"/><path d="M97.455,97.119a1.342,1.342,0,0,1-.524-1.014,27.5,27.5,0,0,1-.125-3.9c0-.5-.147-.785-.675-.892a6.221,6.221,0,0,1-2.009-.557,11.233,11.233,0,0,0-5.409-1.574c.234-.376.406-.524.8-.475a9.245,9.245,0,0,1,1.882.5,2.806,2.806,0,0,0,1.783.036,4.955,4.955,0,0,0,3.336-3.521c.365-1-.052-2.058.139-3.086.123-.633-.221-.917-.853-.881A3.783,3.783,0,0,1,92.071,79.8a1.547,1.547,0,0,0-2.3-.278,12.253,12.253,0,0,0-2.676,3.726,14.082,14.082,0,0,0-1.6,5.31c-.15,2.108-.021,4.234-.044,6.354-.006.582.234.739.759.721.9-.028,1.814-.057,2.717,0a3.894,3.894,0,0,1,3.894,2.428c.236.593-.141.693-.361.872-.288.237-.435-.114-.558-.329a6.788,6.788,0,0,0-.387-.754C90.9,97.056,90.1,96.556,89.2,97.2a3.241,3.241,0,0,0-.637,4.1c.223.37.367.626-.278.626a3.042,3.042,0,0,0-2.834,3.154c.008.664.046,1.337-.008,2a2.852,2.852,0,0,0,.94,2.282,5.156,5.156,0,0,0,1.857,1.246,13.524,13.524,0,0,1,3.949,2.025c.568.482,1.066.236,1.534-.215a18.7,18.7,0,0,0,1.715-1.645,4.607,4.607,0,0,0,1.349-2.586q.14-3.276.139-6.554a2.2,2.2,0,0,1,.718-1.813,1.635,1.635,0,0,0-.185-2.7Zm-4.427,10.071c-.049.185-.139.38-.31.258a4.858,4.858,0,0,1-1.311-1.025.633.633,0,0,1,.073-.788,4.893,4.893,0,0,0,.441-.549c.2-.3.419-.656.807-.546.418.123.378.593.418.96a4.77,4.77,0,0,1,.009.563A3.306,3.306,0,0,1,93.028,107.189Z" transform="translate(-60.461 -62.292)" fill="#cccac6"/><path d="M74.153,83.77a4.688,4.688,0,0,1,.644-2.317,15.193,15.193,0,0,1,4.085-3.975,2.738,2.738,0,0,1,1.14-.259c.27-.051.244.21.206.335a13.7,13.7,0,0,0-.378,2.331,2.383,2.383,0,0,1-.77,1.319,9.053,9.053,0,0,0-1.917,2.51.854.854,0,0,1-1.038.52c-.49-.123-.278-.6-.278-.911a4.094,4.094,0,0,1,.6-1.58c.066-.16.3-.353.092-.5-.236-.174-.394.117-.486.264a14.942,14.942,0,0,0-.762,1.431A1.275,1.275,0,0,1,74.153,83.77Z" transform="translate(-67.015 -63.407)" fill="#fff"/><path d="M101.394,77.225a4.562,4.562,0,0,1,2.2,1.256,14.634,14.634,0,0,1,2.947,3.282,5.3,5.3,0,0,1,.43,1.471c.049.176.033.345-.139.429a.388.388,0,0,1-.441-.128,4.847,4.847,0,0,1-.837-1.3,3,3,0,0,0-.623-1.019c-.13-.111-.27-.251-.429-.147-.21.139-.006.289.046.427a5.989,5.989,0,0,1,.735,2.037c0,.266.111.625-.28.715a.739.739,0,0,1-.837-.388A11.462,11.462,0,0,0,102,81.119a2.152,2.152,0,0,1-.731-1.783,5.591,5.591,0,0,0-.244-1.6C100.989,77.408,101.014,77.139,101.394,77.225Z" transform="translate(-51.389 -63.409)" fill="#fff"/><path d="M77.988,83.574a4.006,4.006,0,0,0-1.4,1.243c-.122.139-.172.373-.41.286-.2-.073-.12-.28-.123-.438a3.986,3.986,0,0,1,1.262-2.586,9.89,9.89,0,0,1,3.889-2.887c.193-.077.365-.332.618-.087a.717.717,0,0,1,.164.786,5.371,5.371,0,0,1-1.1,2.121,30.26,30.26,0,0,0-3,4.144c-.28.418-.729.985-1.131.739-.346-.212-.022-.879.22-1.3A4.939,4.939,0,0,0,77.988,83.574Z" transform="translate(-65.913 -62.366)" fill="#fff"/><path d="M104.942,85.113c-.451-.487-.865-.951-1.3-1.393-.117-.122-.237-.365-.451-.21-.187.139.054.294.049.446-.016.476.34.762.543,1.128a3.64,3.64,0,0,1,.593,1.115c.043.226.239.522.008.639-.179.089-.481-.068-.671-.264a4.67,4.67,0,0,1-.984-1.284,11.517,11.517,0,0,0-2.208-3.057,8.962,8.962,0,0,1-1.256-2.2.737.737,0,0,1,.09-.867c.229-.218.506-.047.718.066a10.126,10.126,0,0,1,4.38,3.82C104.8,83.655,105.288,84.224,104.942,85.113Z" transform="translate(-52.465 -62.334)" fill="#fff"/><path d="M72.525,93.785a5.954,5.954,0,0,1,.921-3.567.8.8,0,0,1,.731-.479c.326.043.486.4.538.68a15.033,15.033,0,0,1,.745,4.221,7.619,7.619,0,0,1-.312,1.585c-.081.259-.278.5-.557.456-.312-.049-.432-.321-.408-.645.035-.476-.228-.914-.153-1.4.022-.139.081-.389-.147-.406-.209-.016-.324.169-.326.384V95.9c0,.259.049.623-.255.652-.19.016-.41-.28-.493-.538A4.977,4.977,0,0,1,72.525,93.785Z" transform="translate(-67.976 -56.121)" fill="#fff"/><path d="M81.127,103.943a5.7,5.7,0,0,1,3.625,1.4,16.75,16.75,0,0,0,1.436.989c.108.074.263.165.223.327s-.225.117-.353.139c-.473.081-.837-.239-1.256-.348-.242-.063-.568-.214-.674.074s.152.479.459.573a4.861,4.861,0,0,1,.957.418.627.627,0,0,1,.372.764c-.152.359-.512.244-.8.155a19.086,19.086,0,0,1-3.282-1.794,5.546,5.546,0,0,1-1.64-1.384c-.237-.28-.5-.623-.388-.924.141-.378.585-.4.976-.38C80.895,103.952,81.012,103.943,81.127,103.943Z" transform="translate(-63.74 -47.86)" fill="#fff"/><path d="M107.5,93.838a4.154,4.154,0,0,1-.418,2.472c-.087.139-.177.332-.356.286s-.177-.248-.171-.418a4.017,4.017,0,0,0-.122-1.684c-.054-.139-.139-.269-.294-.248-.195.027-.16.214-.139.342a8.026,8.026,0,0,1-.139,1.469c-.024.28,0,.571-.323.611s-.5-.177-.618-.47a4.885,4.885,0,0,1-.319-2.569,24.463,24.463,0,0,1,.837-3.337c.229-.723.448-.728,1-.206a4.5,4.5,0,0,1,1.05,2.621A5.874,5.874,0,0,1,107.5,93.838Z" transform="translate(-49.331 -56.133)" fill="#fff"/><path d="M109.279,88.949a1.376,1.376,0,0,1-.054.384c-.043.119-.076.293-.245.308-.139.016-.164-.139-.239-.225a5.235,5.235,0,0,1-.615-1.265c-.1-.2-.231-.486-.5-.373s0,.329,0,.5a8.427,8.427,0,0,0,.5,2.265c.066.27.111.437-.163.58a.435.435,0,0,1-.609-.089l-.013-.019a1.917,1.917,0,0,1-.443-.947,7.883,7.883,0,0,0-1.129-3.6,5.572,5.572,0,0,1-.462-3.239c0-.516.4-.2.539-.087a7.014,7.014,0,0,1,1.333,1.446,12.217,12.217,0,0,1,2.02,3.7A2.682,2.682,0,0,1,109.279,88.949Z" transform="translate(-48.935 -60.076)" fill="#fff"/><path d="M95,106.648c.237-.522.818-.633,1.2-.982a6.152,6.152,0,0,1,4.484-1.722c.9.033,1.079.362.626,1.153a4.434,4.434,0,0,1-1.912,1.6,13.927,13.927,0,0,1-3.051,1.673c-.31.081-.674.3-.845-.077s.066-.726.467-.894c.28-.115.558-.245.837-.337s.539-.195.419-.517-.441-.21-.661-.112a2.712,2.712,0,0,1-1.256.353C95.208,106.781,95.078,106.816,95,106.648Z" transform="translate(-54.886 -47.861)" fill="#fff"/><path d="M75.076,85.545A13.7,13.7,0,0,0,73.582,89.4a3.969,3.969,0,0,0-.1.7,1.116,1.116,0,0,1-.4.871c-.183.172-.357.318-.611.153-.228-.149-.226-.329-.163-.6a15.616,15.616,0,0,0,.512-2.406c.009-.139.06-.307-.106-.365s-.253.079-.318.21c-.223.443-.438.892-.663,1.332-.07.139-.108.359-.323.3-.193-.057-.15-.263-.168-.418a3.819,3.819,0,0,1,.6-2.5,11.009,11.009,0,0,1,3.068-3.693c.152-.013.2.079.2.209A20.246,20.246,0,0,1,75.076,85.545Z" transform="translate(-68.718 -60.055)" fill="#fff"/><path d="M102.49,107.184c-.16.009-.3.028-.35-.095a.33.33,0,0,1,.139-.435c.365-.141.454-.528.734-.735a.416.416,0,0,0,.046-.671c-.2-.214-.418-.082-.6.106a2.071,2.071,0,0,1-.837.626c-.174.059-.362.179-.511-.016a.6.6,0,0,1-.022-.607.56.56,0,0,1,.236-.259,33.421,33.421,0,0,1,3.347-2.259c.718-.3,1.243-.977,1.963-1.318.228-.109.446-.316.712-.139.291.187.071.432.013.636a5.58,5.58,0,0,1-1.839,2.9,6.222,6.222,0,0,0-1.226,1.262C103.828,106.863,103.112,106.95,102.49,107.184Z" transform="translate(-51.389 -49.388)" fill="#fff"/><path d="M73.93,102.035c-.089-.772.245-.868.557-.626a44.3,44.3,0,0,1,4.207,2.847,2.771,2.771,0,0,0,.769.481,2.019,2.019,0,0,1,.685.6.583.583,0,0,1,.033.669c-.183.25-.44.063-.62-.065-.263-.187-.482-.44-.742-.63-.188-.141-.43-.259-.633-.035s-.09.441.084.631c.256.28.522.539.775.819a.311.311,0,0,1,.054.392.353.353,0,0,1-.316.074,2.493,2.493,0,0,1-1.272-.53,18.963,18.963,0,0,1-3.053-3.363A6.957,6.957,0,0,1,73.93,102.035Z" transform="translate(-67.153 -49.402)" fill="#fff"/><path d="M73.028,96.552a2.507,2.507,0,0,1,.139-.7c.2-.837.327-.908,1.015-.361a7.911,7.911,0,0,1,2.482,3.764c.139.419.266.846.4,1.27.049.16.259.346-.009.475-.191.093-.375-.06-.486-.191-.259-.3-.471-.642-.715-.958-.127-.163-.272-.389-.5-.3-.321.117-.054.378-.028.541a12.574,12.574,0,0,0,.346,1.359c.054.207.139.479-.052.6-.247.15-.467-.093-.571-.28-.418-.732-.819-1.477-1.169-2.243A12.955,12.955,0,0,1,73.028,96.552Z" transform="translate(-67.669 -52.978)" fill="#fff"/><path d="M75.236,89.334a1.989,1.989,0,0,1,.191-.987c.044-.117.108-.234-.009-.315-.149-.1-.278.008-.35.128-.269.468-.525.949-.778,1.428-.139.28-.27.626-.655.478-.41-.164-.365-.573-.305-.919a7.981,7.981,0,0,1,1.86-3.8c.376-.446.655-.987,1.284-1.132.6-.139.792-.013.715.612a16.368,16.368,0,0,1-1.023,5.019c-.141.313-.25.588-.612.5-.327-.076-.316-.4-.318-.677Z" transform="translate(-67.516 -59.366)" fill="#fff"/><path d="M86.1,75.44a6.617,6.617,0,0,1-2.556,3.976,15.864,15.864,0,0,0-1.213,1.068c-.3.258-.717.558-1.025.234-.348-.361.017-.735.291-1.034a8.353,8.353,0,0,0,.93-1.06.769.769,0,0,0,.13-.7c-.489.187-.758.631-1.125.927a2.354,2.354,0,0,1-1.164.536c-.226.032-.533.161-.629-.087a.6.6,0,0,1,.31-.707,10.576,10.576,0,0,1,1.28-.827,23.549,23.549,0,0,0,2.27-1.51A7.335,7.335,0,0,1,86.1,75.44Z" transform="translate(-63.779 -64.438)" fill="#fff"/><path d="M103.345,101.058a6.118,6.118,0,0,1,.593-2.14,7.456,7.456,0,0,1,2.539-3.543c.512-.375.644-.332.767.28a7.663,7.663,0,0,1-1.183,5.019c-.2.4-.419.791-.634,1.182a.4.4,0,0,1-.4.232c-.232-.036-.139-.259-.152-.408a3.51,3.51,0,0,1,.263-1.452c.06-.2.319-.446.033-.634s-.353.179-.52.307C104.212,100.222,104.073,100.9,103.345,101.058Z" transform="translate(-50.035 -52.982)" fill="#fff"/><path d="M84.11,109.7a4.036,4.036,0,0,1-2.817-.753,6.793,6.793,0,0,1-2.172-1.5,7.374,7.374,0,0,1-.734-1.02c-.221-.361.147-.829.709-.87a2.865,2.865,0,0,1,1.558.233c1.267.631,2.543,1.246,3.749,1.994.331.206.788.558.558.911-.218.332-.751.081-1.076-.139a5.123,5.123,0,0,0-.881-.41.369.369,0,0,0-.5.155.35.35,0,0,0-.04.125c-.062.229.017.354.269.473C83.18,109.117,83.739,109.143,84.11,109.7Z" transform="translate(-64.589 -46.936)" fill="#fff"/><path d="M97.33,109.546c.457-.223.908-.462,1.376-.663.24-.1.435-.179.3-.5-.119-.28-.293-.327-.557-.2-.373.185-.754.357-1.145.514-.305.123-.716.266-.894-.038-.139-.244.2-.535.41-.732a9.491,9.491,0,0,1,2.246-1.256,6.052,6.052,0,0,1,3.032-1.136,1.224,1.224,0,0,1,.721.22.528.528,0,0,1,.24.707.491.491,0,0,1-.082.12,7.055,7.055,0,0,1-3.186,2.532A3,3,0,0,1,97.33,109.546Z" transform="translate(-54.088 -46.933)" fill="#fff"/><path d="M99.721,103.855c-.073-.558.359-.837.7-1.064a30.285,30.285,0,0,1,4.487-2.964c.168-.073.324-.267.5-.155.215.139.109.375.07.58a7.13,7.13,0,0,1-2.331,3.777,5.734,5.734,0,0,1-1.691,1.3c-.139.054-.278.139-.387.038-.179-.166.024-.331.1-.419.247-.245.508-.478.778-.7a1.693,1.693,0,0,0,.46-.618.382.382,0,0,0-.114-.5c-.185-.139-.278.017-.418.106-.484.318-.781.868-1.33,1.1S99.721,104.423,99.721,103.855Z" transform="translate(-52.147 -50.363)" fill="#fff"/><path d="M81.351,103.829c0,.207.049.452-.195.557a.751.751,0,0,1-.789-.139c-.388-.3-.743-.639-1.117-.954-.114-.1-.21-.313-.4-.187s-.168.354-.125.577c.074.383.429.471.648.7.272.278.856.6.6.946-.2.263-.74-.179-1.039-.437a7.684,7.684,0,0,1-3.374-4.927c-.122-.432.253-.354.49-.229a17.308,17.308,0,0,1,1.771.987c1.036.712,2.036,1.476,3.046,2.23A.957.957,0,0,1,81.351,103.829Z" transform="translate(-66.208 -50.364)" fill="#fff"/><path d="M71.3,96.681a5.405,5.405,0,0,1-.985-4.34,13.234,13.234,0,0,1,.541-1.964,1.347,1.347,0,0,1,.4-.557c.256-.2.361-.258.539.182a16.394,16.394,0,0,1,1.329,5.8,1.927,1.927,0,0,1,0,.427c-.059.278-.128.637-.425.669s-.334-.34-.394-.58a6.435,6.435,0,0,1-.329-1.871c.009-.172.071-.443-.195-.449s-.312.236-.31.47v1.642C71.46,96.286,71.515,96.486,71.3,96.681Z" transform="translate(-69.313 -56.162)" fill="#fff"/><path d="M77.9,77.873c.063-.921.83-.9,1.256-1.227,1.166-.886,2.422-1.648,3.617-2.5a1.685,1.685,0,0,1,1.278-.155c.438.047.2.408.127.607a7.525,7.525,0,0,1-2.972,3.747c-.4.259-.7.7-1.237.742-.206.021-.4.164-.558-.06s.079-.329.15-.486c.247-.536.8-.786,1.117-1.254a2.706,2.706,0,0,0,.3-.386c.081-.195.4-.4.157-.6s-.4.13-.571.28c-.384.342-.766.7-1.151,1.031C78.964,78.009,78.418,77.638,77.9,77.873Z" transform="translate(-64.835 -65.316)" fill="#fff"/><path d="M108.378,89.571c1.764,1.58,1.874,4.7.3,7.236a6.04,6.04,0,0,1-.185-2.187c-.022-.215.12-.558-.226-.577-.418-.022-.278.367-.278.587a5.215,5.215,0,0,1-.361,1.934c-.057.177-.089.43-.315.419-.248-.022-.312-.3-.318-.493a14.211,14.211,0,0,1,0-2.14A19.57,19.57,0,0,1,108.378,89.571Z" transform="translate(-47.933 -56.219)" fill="#fff"/><path d="M107.027,89.416a.542.542,0,0,1-.342.614c-.315.117-.47-.171-.55-.411a9.414,9.414,0,0,0-.747-1.447c-.087-.158-.22-.37-.429-.286-.294.119-.051.34,0,.475a4.16,4.16,0,0,1,.123,1.479c0,.193-.063.418-.251.46a.429.429,0,0,1-.5-.3,11.117,11.117,0,0,1-.8-2.694c-.049-.867-.179-1.729-.278-2.592-.068-.6.221-.636.669-.463.827.316,1.172,1.115,1.673,1.746A6.888,6.888,0,0,1,107.027,89.416Z" transform="translate(-50.093 -59.368)" fill="#fff"/><path d="M99.672,80.777a1.882,1.882,0,0,1-.93-.558,9.038,9.038,0,0,1-3.048-3.405c-.166-.411-.569-.976-.34-1.218s.837.041,1.272.18a20.532,20.532,0,0,1,3.143,1.936c.475.25.9.587,1.373.846a.587.587,0,0,1,.34.633c-.073.3-.356.147-.588.139-.878-.038-1.31-.732-1.876-1.242-.155-.141-.288-.5-.541-.28-.187.166.028.448.125.636a8.069,8.069,0,0,0,1.188,1.4.7.7,0,0,1,.191.778A.319.319,0,0,1,99.672,80.777Z" transform="translate(-54.723 -64.402)" fill="#fff"/><path d="M103.328,77.72c-1.042.337-1.694-.237-2.316-.943-.248-.278-.611-.819-.908-.557s.236.656.4,1c.24.524.851.667,1.093,1.164.093.195.441.367.22.6a.661.661,0,0,1-.837-.036c-.482-.323-.951-.674-1.4-1.042a7.5,7.5,0,0,1-2.349-3.119c-.068-.176-.332-.419-.089-.641a.821.821,0,0,1,.794-.166,4.135,4.135,0,0,1,1.6.837,26.885,26.885,0,0,0,3.285,2.252C103.058,77.225,103.314,77.341,103.328,77.72Z" transform="translate(-53.705 -65.311)" fill="#fff"/><path d="M77.866,98.71a5.8,5.8,0,0,1,1.964.739c.682.535,1.386,1.038,2.048,1.594.476.4.9.87,1.346,1.308.085.084.172.19.085.307s-.206.059-.318.016a3.51,3.51,0,0,1-1.419-1.011c-.152-.172-.353-.418-.577-.2s.013.418.18.585c.35.351.7.709,1.038,1.063.139.139.253.3.093.5-.13.158-.3.114-.444.024a10.13,10.13,0,0,1-1.245-.78,13.4,13.4,0,0,1-3.407-3.176c-.128-.217-.3-.456-.127-.726C77.218,98.737,77.425,98.639,77.866,98.71Z" transform="translate(-65.352 -50.916)" fill="#fff"/><path d="M97.929,102.665a20.042,20.042,0,0,1,3.3-3,6.89,6.89,0,0,1,2.132-.943.677.677,0,0,1,.826.206c.171.28.013.549-.139.837-.707,1.3-2,1.931-3.043,2.85a5.133,5.133,0,0,1-1.4.93c-.225.093-.487.356-.675.051-.158-.261.119-.465.288-.645.331-.354.811-.558,1.022-1.034.057-.133.31-.206.139-.4s-.351-.092-.5.022a10.089,10.089,0,0,1-1.178.993C98.475,102.649,98.275,102.85,97.929,102.665Z" transform="translate(-53.185 -50.935)" fill="#fff"/><path d="M109.211,97.163a5.309,5.309,0,0,1-1,3.189c-.419.709-.837,1.416-1.275,2.11-.117.183-.3.476-.538.342s-.139-.465-.057-.7c.131-.351.307-.688.448-1.036.052-.139.27-.3.055-.418-.182-.106-.329.046-.454.212-.289.4-.6.773-.911,1.155-.077.093-.191.179-.3.1-.15-.106-.085-.253,0-.37A23.272,23.272,0,0,0,107.3,97.4a3.146,3.146,0,0,1,1.362-1.373c.365-.191.617-.149.557.375A6.866,6.866,0,0,0,109.211,97.163Z" transform="translate(-49.02 -52.527)" fill="#fff"/><path d="M73.663,100.6a6.719,6.719,0,0,0,.471,1.6c.044.214.158.519-.123.626-.218.081-.37-.166-.467-.35a16.773,16.773,0,0,1-2.232-4.418,9.814,9.814,0,0,1-.06-1.841c0-.452.294-.35.525-.2a3.932,3.932,0,0,1,1.632,1.792c.41,1,.807,2.009,1.2,3.016.125.324.43.5.593.783.087.153.278.362.079.5-.221.166-.267-.139-.392-.245C74.468,101.491,74.307,100.851,73.663,100.6Z" transform="translate(-68.712 -52.542)" fill="#fff"/><path d="M104.828,96.033a14,14,0,0,1-.671,3.793,1.44,1.44,0,0,1-.348.6.724.724,0,0,1-.96.035.557.557,0,0,1-.032-.788l.043-.041a2.228,2.228,0,0,0,.546-1.2c.025-.164.081-.419-.2-.451-.223-.03-.209.16-.278.315-.193.456-.443.881-.667,1.324-.095.19-.193.319-.429.174-.2-.128-.323-.269-.209-.522a9.2,9.2,0,0,1,.618-1.349c.7-1.05.747-2.391,1.507-3.415.176-.234.327-.524.628-.446s.332.388.354.7A7.289,7.289,0,0,1,104.828,96.033Z" transform="translate(-51.061 -53.613)" fill="#fff"/><path d="M75.374,96.033a6.09,6.09,0,0,1,.122-1.616c.215-.577.454-.459.723-.106a3.724,3.724,0,0,1,.65,1.163,23.925,23.925,0,0,0,1.441,3.413c.071.147.093.319.169.463.122.237,0,.338-.187.438s-.315-.017-.4-.163c-.255-.448-.5-.9-.739-1.362-.063-.122-.06-.307-.258-.239a.314.314,0,0,0-.214.388l0,.014a4.084,4.084,0,0,0,.493,1.167c.234.321.318.723,0,.935a.722.722,0,0,1-.987-.255A2.978,2.978,0,0,1,75.67,98.9,9.746,9.746,0,0,1,75.374,96.033Z" transform="translate(-66.311 -53.634)" fill="#fff"/><path d="M79.47,86.138a11.131,11.131,0,0,1,.761-2.091c.123-.231.244-.5.035-.636-.247-.158-.419.163-.538.337a7.655,7.655,0,0,0-.634,1.1,1.585,1.585,0,0,1-.547.626c-.248.174-.437.066-.456-.185a2.016,2.016,0,0,1,.2-1.378,7.389,7.389,0,0,1,3.957-2.928c.183-.059.367-.141.53-.025.217.16.013.35-.024.516A11.408,11.408,0,0,1,80.4,85.267C80.174,85.582,80.016,86.018,79.47,86.138Z" transform="translate(-64.749 -61.262)" fill="#fff"/><path d="M86.07,78.318a2.22,2.22,0,0,1-.46,1.308,6.854,6.854,0,0,1-2.244,2.469.958.958,0,0,1-.582.18c-.2-.011-.444.043-.535-.225-.074-.225.041-.364.2-.546.492-.568,1.231-.822,1.683-1.444.108-.139.353-.255.21-.44s-.335.011-.467.125c-.612.512-1.386.764-1.991,1.3a.557.557,0,0,1-.788,0l-.03-.033c-.163-.232.089-.484.278-.655A20.414,20.414,0,0,1,84.521,78.2c.212-.127.451-.234.675-.353C85.734,77.561,86.071,77.756,86.07,78.318Z" transform="translate(-63.025 -63.115)" fill="#fff"/><path d="M101.259,86.062a10.872,10.872,0,0,1-2.1-2.41,5.589,5.589,0,0,1-1.208-2.2.72.72,0,0,1-.022-.471c.09-.147.285-.066.446-.011a7.428,7.428,0,0,1,4.013,2.969,1.287,1.287,0,0,1,.217.878c-.028.245.127.622-.182.7s-.547-.193-.688-.5a4.594,4.594,0,0,0-1.115-1.607c-.1-.087-.206-.245-.35-.128s-.028.258.025.384Q100.766,84.858,101.259,86.062Z" transform="translate(-53.203 -61.266)" fill="#fff"/><path d="M95.167,77.742a1.689,1.689,0,0,1,.976.383,24.483,24.483,0,0,1,3.138,2.091c.248.188.6.489.389.792s-.569.087-.86-.109c-.655-.44-1.333-.837-2-1.264-.117-.07-.231-.2-.362-.059s.013.259.073.38c.232.473.713.664,1.087.976.231.195.467.378.682.6.16.16.346.293.188.52a.557.557,0,0,1-.565.195,2,2,0,0,1-1.1-.707,5.257,5.257,0,0,1-2.021-3.345C94.766,77.809,94.873,77.72,95.167,77.742Z" transform="translate(-55.012 -63.101)" fill="#fff"/><path d="M77,93.125v2.208c0,.149.025.316-.139.351s-.255-.108-.312-.236a2.214,2.214,0,0,1-.16-1.517,2.227,2.227,0,0,0,.1-.478c0-.15.081-.386-.13-.418-.237-.041-.278.217-.315.383-.16.683-.289,1.373-.449,2.059-.047.2-.125.446-.378.452-.307.009-.278-.345-.288-.482a9.317,9.317,0,0,1,.006-2.543,8.346,8.346,0,0,1,.89-2.51c.131-.259.367-.348.557-.522.319-.3.419-.24.489.2A27.647,27.647,0,0,1,77,93.125Z" transform="translate(-66.612 -56.152)" fill="#fffffb"/><path d="M94.411,105.1a.707.707,0,0,1,.305-.58,12.661,12.661,0,0,1,3.371-2.221c.356-.127.721-.209.976.074s-.051.571-.139.837a1.542,1.542,0,0,1-.37.592,14.159,14.159,0,0,1-3.54,2.819c-.139.062-.245.278-.418.112s-.093-.345-.033-.531c.1-.31.362-.41.6-.558.217-.128.645-.155.467-.558-.166-.37-.484-.092-.742-.057C94.734,105.069,94.6,105.23,94.411,105.1Z" transform="translate(-55.231 -48.881)" fill="#fff"/><path d="M82.094,102.192a3.927,3.927,0,0,1,1.89.845,13.439,13.439,0,0,1,2.044,1.591c.111.133.365.237.215.457-.122.18-.294,0-.44-.043a2.182,2.182,0,0,0-.327-.117c-.217-.035-.456-.011-.528.233s.15.316.315.4c.359.188.818.267.862.8a.649.649,0,0,1-.051.4c-.108.139-.24,0-.364-.065a14.93,14.93,0,0,1-3.576-2.929,1.966,1.966,0,0,1-.517-.993C81.555,102.428,81.648,102.153,82.094,102.192Z" transform="translate(-62.683 -48.879)" fill="#fff"/><path d="M102.75,93.3c-.128-.936.185-2.059.128-3.2-.03-.558.244-.473.531-.234a4.327,4.327,0,0,1,1.286,2.3,11.9,11.9,0,0,1,.157,3.108c0,.263-.03.595-.3.642-.359.063-.335-.348-.4-.558-.177-.6-.305-1.223-.43-1.841-.047-.233-.032-.566-.35-.473-.264.081-.155.408-.092.623a2.809,2.809,0,0,1-.041,1.673c-.054.174-.1.338-.294.329-.229-.011-.2-.217-.2-.38C102.75,94.692,102.75,94.1,102.75,93.3Z" transform="translate(-50.399 -56.152)" fill="#fff"/><path d="M79.04,85.572a7.091,7.091,0,0,1-1.087,3.9.272.272,0,0,1-.087.111c-.278.2-.183.837-.639.716s-.073-.571-.139-.867c-.024-.109.019-.253-.139-.278a.259.259,0,0,0-.28.163c-.139.248-.239.516-.4.75s-.35.457-.618.338c-.228-.1-.226-.408-.179-.639a4.962,4.962,0,0,1,1.93-3.242C77.9,86.178,78.444,85.917,79.04,85.572Z" transform="translate(-66.26 -58.545)" fill="#fff"/><path d="M101.211,85.619a4.931,4.931,0,0,1,3.5,3.625c.106.383.248.938-.139,1.1-.324.141-.5-.441-.759-.7-.2-.2-.087-.775-.506-.622-.332.119-.035.489-.008.75.021.195.022.41-.174.5-.242.117-.3-.122-.4-.27a10.908,10.908,0,0,1-1.5-3.54A3.443,3.443,0,0,1,101.211,85.619Z" transform="translate(-51.289 -58.517)" fill="#fff"/><path d="M89.952,73.554A2.58,2.58,0,0,1,89,75.135a19.421,19.421,0,0,1-3.151,2.788c-.418.28-.637.766-1.115.94-.294.109-.666.351-.887.1-.289-.329.027-.661.267-.921a29.461,29.461,0,0,1,4.032-3.371,9.743,9.743,0,0,0,1.393-1.182c.073-.079.139-.206.286-.119A.281.281,0,0,1,89.952,73.554Z" transform="translate(-61.441 -65.658)" fill="#fff"/><path d="M91.284,73.219c1.912,1.86,4.184,3.027,5.881,4.938.223.251.432.53.236.805-.177.251-.5.1-.759-.017a1.418,1.418,0,0,1-.432-.209,46.953,46.953,0,0,1-3.919-3.582C91.875,74.636,91.2,74.231,91.284,73.219Z" transform="translate(-57.054 -65.73)" fill="#fff"/><path d="M83.188,111.968a4.053,4.053,0,0,1,.9-.9,27.423,27.423,0,0,0,2.694-2.121,1.588,1.588,0,0,1,1.862-.011.48.48,0,0,1,.011.68.5.5,0,0,1-.076.065,2.813,2.813,0,0,1-1.137.622,3.192,3.192,0,0,0-1.563.837A3.208,3.208,0,0,1,83.188,111.968Z" transform="translate(-61.759 -45.124)" fill="#fff"/><path d="M96.744,111.906c-.837.059-1.381-.558-1.925-1.019s-1.273-.418-1.806-.849c-.345-.28-.924-.41-.672-1.039.139-.345,1.284-.519,1.593-.21.587.585,1.314.965,1.942,1.484l1.832,1.509C97.43,112.159,97.078,111.97,96.744,111.906Z" transform="translate(-56.471 -45.133)" fill="#fff"/><path d="M89.345,75.233a9.609,9.609,0,0,1-4.063,4.212.217.217,0,0,1-.307-.008.246.246,0,0,1-.046-.073c-.089-.3-.367-.587-.139-.93a1.426,1.426,0,0,1,.34-.356q2.045-1.492,4.1-2.972C89.345,75.066,89.4,75.095,89.345,75.233Z" transform="translate(-60.878 -64.642)" fill="#fff"/><path d="M91.53,75.2c1.337.849,2.5,1.952,3.872,2.755.626.367.531.913.25,1.534a10.342,10.342,0,0,1-4.267-4.138C91.334,75.193,91.4,75.16,91.53,75.2Z" transform="translate(-57.002 -64.588)" fill="#fffffb"/><path d="M93.806,107.773a2.235,2.235,0,0,1-.87,1.724c-.15.139-.269.109-.435.032a.44.44,0,0,1-.285-.557l.006-.019a4.1,4.1,0,0,0,0-2.325c-.055-.354,0-.75.406-.883.376-.127.493.225.685.463A3.149,3.149,0,0,1,93.806,107.773Z" transform="translate(-56.521 -46.826)" fill="#fffefc"/><path d="M85.386,107.726a2.862,2.862,0,0,1,.623-1.938c.255-.338.471-.307.685.063.123.209.28.47.215.648a5.621,5.621,0,0,0-.084,2.38c.019.234.041.5-.278.574a.571.571,0,0,1-.645-.28A1.743,1.743,0,0,1,85.386,107.726Z" transform="translate(-60.487 -46.922)" fill="#fffdf8"/><path d="M92.3,108.638a.92.92,0,0,1-.946.892,1.076,1.076,0,0,1-.125-.013,4.893,4.893,0,0,0-2.51.019c-.258.035-.743.316-.818-.294-.068-.557.3-.792.75-.815a23.069,23.069,0,0,0,2.975-.152.535.535,0,0,1,.671.353Z" transform="translate(-59.02 -45.352)" fill="#fff"/><path d="M85.93,108.28a.193.193,0,0,1,.253.1.266.266,0,0,1,.014.051.386.386,0,0,1-.166.437c-1.269.786-2.221,1.977-3.448,2.814-.1.063-.21.158-.3.049a.634.634,0,0,1-.084-.329c-.019-.188.128-.3.223-.43a8.758,8.758,0,0,1,2.913-2.575A.8.8,0,0,1,85.93,108.28Z" transform="translate(-62.338 -45.346)" fill="#fffdf8"/><path d="M94.7,108.253a2.667,2.667,0,0,1,1.329.705,8.926,8.926,0,0,1,2.145,2.27c.079.139.258.323.03.5-.209.157-.343-.008-.481-.133q-1.571-1.435-3.276-2.709c-.177-.127-.278-.247-.22-.459S94.491,108.3,94.7,108.253Z" transform="translate(-55.35 -45.352)" fill="#fffffb"/><path d="M92.1,110.044a3.723,3.723,0,0,1-3.834-.016A3.73,3.73,0,0,1,92.1,110.044Z" transform="translate(-58.803 -44.623)" fill="#fffcf4"/><path d="M87.664,105.363c.288-.047.418.13.364.456a1.614,1.614,0,0,1-.155.533,2.357,2.357,0,0,0-.065,2.32.486.486,0,0,1-.147.672l-.014.009a.412.412,0,0,1-.462.038c-.258-.152-.206-.419-.139-.634a2.207,2.207,0,0,0-.089-1.583,2.385,2.385,0,0,1-.084-1.188C86.918,105.592,87.2,105.375,87.664,105.363Z" transform="translate(-59.638 -47.037)" fill="#fffcf8"/><path d="M91.23,108.706c-.019.117-.025.011.017-.068a2.357,2.357,0,0,0-.171-2.355c-.139-.239-.331-.5-.066-.77a.632.632,0,0,1,.778-.068.732.732,0,0,1,.4.761,4.185,4.185,0,0,1-.155.753,2.879,2.879,0,0,0-.073,1.926c.092.247.123.536-.278.557C91.308,109.464,91.17,109.273,91.23,108.706Z" transform="translate(-57.286 -47.045)" fill="#fffcf8"/><path d="M90.307,103.785c.191-.122.269.009.278.153.019.337-.976,1.038-1.254.865s-.789-.327-.69-.783c.095-.429.55-.195.845-.229A6.77,6.77,0,0,1,90.307,103.785Z" transform="translate(-58.594 -47.979)" fill="#fff6e5"/><path d="M90.156,108.085c-.248-.016-.522-.017-.433-.324a1.011,1.011,0,0,1,.756-.735.33.33,0,0,1,.384.264.315.315,0,0,1,0,.122.688.688,0,0,1-.7.674Z" transform="translate(-57.968 -46.069)" fill="#fff7e9"/><path d="M88.346,107.021a1.012,1.012,0,0,1,.648.658c.07.228-.221.411-.481.367-.375-.065-.645-.255-.617-.712C87.913,107.086,88.015,106.991,88.346,107.021Z" transform="translate(-59.022 -46.072)" fill="#fff5e0"/><path d="M91.129,104.89c.022.506-.315.663-.756.677-.231.006-.418-.074-.391-.37a2.812,2.812,0,0,1,.995-.821C91.171,104.482,91.2,104.661,91.129,104.89Z" transform="translate(-57.809 -47.607)" fill="#fff6e5"/><path d="M87.895,104.841c.06-.168-.066-.517.206-.419a1.314,1.314,0,0,1,.914.786c.068.236-.242.342-.433.331a.648.648,0,0,1-.686-.611A.533.533,0,0,1,87.895,104.841Z" transform="translate(-59.023 -47.59)" fill="#fff9ee"/><path d="M89.058,106a.824.824,0,0,1-.7.712.221.221,0,0,1-.267-.164.226.226,0,0,1,.014-.144.793.793,0,0,1,.737-.626C89.049,105.761,89.076,105.868,89.058,106Z" transform="translate(-58.908 -46.795)" fill="#fff3db"/><path d="M89.692,105.779c.481-.123.837-.066.995.419.052.153.087.378-.139.384C90.029,106.6,89.926,106.136,89.692,105.779Z" transform="translate(-57.976 -46.824)" fill="#fff7ea"/><path d="M73.713,85.6a14.347,14.347,0,0,0-.152-2.578c.111-.122.364-.24.318-.013C73.713,83.872,74.015,84.754,73.713,85.6Z" transform="translate(-67.359 -60.11)" fill="#fac45d"/><path d="M95.1,110.748c.319-.044.674.16.963-.127.212.024.312.158.4.5C96,110.735,95.491,111.084,95.1,110.748Z" transform="translate(-54.829 -43.974)" fill="#fabe4e"/><path d="M87.683,75.314l-.122-.128c.073-.115.2-.3.285-.214C87.991,75.118,87.839,75.246,87.683,75.314Z" transform="translate(-59.216 -64.723)" fill="#fac45d"/><path d="M91.593,75.278l-.139.139c-.1-.1-.3-.214-.139-.359C91.388,74.985,91.506,75.181,91.593,75.278Z" transform="translate(-57.067 -64.67)" fill="#ffdb95"/></svg>