<svg xmlns="http://www.w3.org/2000/svg" width="67.399" height="67.399" viewBox="0 0 67.399 67.399"><g transform="translate(-563.797 -835.095)"><path d="M620.06,845.748a10.967,10.967,0,0,1-4.646,9.3q-.75.421-1.475.877-.862.54-1.689,1.13A35.03,35.03,0,0,0,597.5,885.644a16.85,16.85,0,1,1-23.649-15.421c1-.366,2.015-.621,2.99-1h0q.538-.208,1.066-.432a34.915,34.915,0,0,0,20.2-23.508c.015-.056.029-.113.041-.169a10.9,10.9,0,0,1,.535-2.565s0,0,0,0a10.981,10.981,0,0,1,21.375,3.2Z" transform="translate(0)" fill="#f9f7f7"/><path d="M785.183,978.16v3.2a8.463,8.463,0,1,1,0-3.2Z" transform="translate(-153.988 -102.504)" fill="#e84a5f"/></g></svg>